<svg width="160" height="50" viewBox="0 0 246 69" fill="none" xmlns="http://www.w3.org/2000/svg">
<rect width="246" height="69" rx="34.5" fill="#1E1E1E"/>
<path d="M61.1591 43.2727C59.9318 43.2727 58.875 42.983 57.9886 42.4034C57.1023 41.8239 56.4205 41.0256 55.9432 40.0085C55.4659 38.9915 55.2273 37.8295 55.2273 36.5227C55.2273 35.1932 55.4716 34.0199 55.9602 33.0028C56.4545 31.9801 57.142 31.1818 58.0227 30.608C58.9091 30.0284 59.9432 29.7386 61.125 29.7386C62.0455 29.7386 62.875 29.9091 63.6136 30.25C64.3523 30.5909 64.9574 31.0682 65.429 31.6818C65.9006 32.2955 66.1932 33.0114 66.3068 33.8295H64.2955C64.142 33.233 63.8011 32.7045 63.2727 32.2443C62.75 31.7784 62.0455 31.5455 61.1591 31.5455C60.375 31.5455 59.6875 31.75 59.0966 32.1591C58.5114 32.5625 58.054 33.1335 57.7244 33.8722C57.4006 34.6051 57.2386 35.4659 57.2386 36.4545C57.2386 37.4659 57.3977 38.3466 57.7159 39.0966C58.0398 39.8466 58.4943 40.429 59.0795 40.8438C59.6705 41.2585 60.3636 41.4659 61.1591 41.4659C61.6818 41.4659 62.1562 41.375 62.5824 41.1932C63.0085 41.0114 63.3693 40.75 63.6648 40.4091C63.9602 40.0682 64.1705 39.6591 64.2955 39.1818H66.3068C66.1932 39.9545 65.9119 40.6506 65.4631 41.2699C65.0199 41.8835 64.4318 42.3722 63.6989 42.7358C62.9716 43.0938 62.125 43.2727 61.1591 43.2727ZM71.2585 25.5455V43H69.2472V25.5455H71.2585ZM83.1925 37.6477V29.9091H85.2038V43H83.1925V40.7841H83.0561C82.7493 41.4489 82.272 42.0142 81.6243 42.4801C80.9766 42.9403 80.1584 43.1705 79.1697 43.1705C78.3516 43.1705 77.6243 42.9915 76.9879 42.6335C76.3516 42.2699 75.8516 41.7244 75.4879 40.9972C75.1243 40.2642 74.9425 39.3409 74.9425 38.2273V29.9091H76.9538V38.0909C76.9538 39.0455 77.2209 39.8068 77.755 40.375C78.2947 40.9432 78.9822 41.2273 79.8175 41.2273C80.3175 41.2273 80.826 41.0994 81.343 40.8438C81.8658 40.5881 82.3033 40.196 82.6555 39.6676C83.0135 39.1392 83.1925 38.4659 83.1925 37.6477ZM89.1605 43V25.5455H91.1719V31.9886H91.3423C91.4901 31.7614 91.6946 31.4716 91.956 31.1193C92.223 30.7614 92.6037 30.4432 93.098 30.1648C93.598 29.8807 94.2741 29.7386 95.1264 29.7386C96.2287 29.7386 97.2003 30.0142 98.0412 30.5653C98.8821 31.1165 99.5384 31.8977 100.01 32.9091C100.482 33.9205 100.717 35.1136 100.717 36.4886C100.717 37.875 100.482 39.0767 100.01 40.0938C99.5384 41.1051 98.8849 41.8892 98.0497 42.446C97.2145 42.9972 96.2514 43.2727 95.1605 43.2727C94.3196 43.2727 93.6463 43.1335 93.1406 42.8551C92.6349 42.571 92.2457 42.25 91.973 41.892C91.7003 41.5284 91.4901 41.2273 91.3423 40.9886H91.1037V43H89.1605ZM91.1378 36.4545C91.1378 37.4432 91.2827 38.3153 91.5724 39.071C91.8622 39.821 92.2855 40.4091 92.8423 40.8352C93.3991 41.2557 94.081 41.4659 94.8878 41.4659C95.7287 41.4659 96.4304 41.2443 96.9929 40.8011C97.5611 40.3523 97.9872 39.75 98.2713 38.9943C98.5611 38.233 98.706 37.3864 98.706 36.4545C98.706 35.5341 98.5639 34.7045 98.2798 33.9659C98.0014 33.2216 97.5781 32.6335 97.0099 32.2017C96.4474 31.7642 95.7401 31.5455 94.8878 31.5455C94.0696 31.5455 93.3821 31.7528 92.8253 32.1676C92.2685 32.5767 91.848 33.1506 91.5639 33.8892C91.2798 34.6222 91.1378 35.4773 91.1378 36.4545ZM104.067 43V25.5455H106.078V31.9886H106.249C106.396 31.7614 106.601 31.4716 106.862 31.1193C107.129 30.7614 107.51 30.4432 108.004 30.1648C108.504 29.8807 109.18 29.7386 110.033 29.7386C111.135 29.7386 112.107 30.0142 112.947 30.5653C113.788 31.1165 114.445 31.8977 114.916 32.9091C115.388 33.9205 115.624 35.1136 115.624 36.4886C115.624 37.875 115.388 39.0767 114.916 40.0938C114.445 41.1051 113.791 41.8892 112.956 42.446C112.121 42.9972 111.158 43.2727 110.067 43.2727C109.226 43.2727 108.553 43.1335 108.047 42.8551C107.541 42.571 107.152 42.25 106.879 41.892C106.607 41.5284 106.396 41.2273 106.249 40.9886H106.01V43H104.067ZM106.044 36.4545C106.044 37.4432 106.189 38.3153 106.479 39.071C106.768 39.821 107.192 40.4091 107.749 40.8352C108.305 41.2557 108.987 41.4659 109.794 41.4659C110.635 41.4659 111.337 41.2443 111.899 40.8011C112.467 40.3523 112.893 39.75 113.178 38.9943C113.467 38.233 113.612 37.3864 113.612 36.4545C113.612 35.5341 113.47 34.7045 113.186 33.9659C112.908 33.2216 112.484 32.6335 111.916 32.2017C111.354 31.7642 110.646 31.5455 109.794 31.5455C108.976 31.5455 108.288 31.7528 107.732 32.1676C107.175 32.5767 106.754 33.1506 106.47 33.8892C106.186 34.6222 106.044 35.4773 106.044 36.4545ZM118.7 43V29.9091H120.712V43H118.7ZM119.723 27.7273C119.331 27.7273 118.993 27.5938 118.709 27.3267C118.43 27.0597 118.291 26.7386 118.291 26.3636C118.291 25.9886 118.43 25.6676 118.709 25.4006C118.993 25.1335 119.331 25 119.723 25C120.115 25 120.45 25.1335 120.729 25.4006C121.013 25.6676 121.155 25.9886 121.155 26.3636C121.155 26.7386 121.013 27.0597 120.729 27.3267C120.45 27.5938 120.115 27.7273 119.723 27.7273ZM129.884 43.2727C128.623 43.2727 127.535 42.9943 126.62 42.4375C125.711 41.875 125.009 41.0909 124.515 40.0852C124.026 39.0739 123.782 37.8977 123.782 36.5568C123.782 35.2159 124.026 34.0341 124.515 33.0114C125.009 31.983 125.697 31.1818 126.577 30.608C127.464 30.0284 128.498 29.7386 129.68 29.7386C130.362 29.7386 131.035 29.8523 131.7 30.0795C132.364 30.3068 132.969 30.6761 133.515 31.1875C134.06 31.6932 134.495 32.3636 134.819 33.1989C135.143 34.0341 135.305 35.0625 135.305 36.2841V37.1364H125.214V35.3977H133.259C133.259 34.6591 133.112 34 132.816 33.4205C132.526 32.8409 132.112 32.3835 131.572 32.0483C131.038 31.7131 130.407 31.5455 129.68 31.5455C128.879 31.5455 128.185 31.7443 127.6 32.142C127.021 32.5341 126.575 33.0455 126.262 33.6761C125.95 34.3068 125.793 34.983 125.793 35.7045V36.8636C125.793 37.8523 125.964 38.6903 126.305 39.3778C126.651 40.0597 127.131 40.5795 127.745 40.9375C128.359 41.2898 129.072 41.4659 129.884 41.4659C130.413 41.4659 130.89 41.392 131.316 41.2443C131.748 41.0909 132.12 40.8636 132.433 40.5625C132.745 40.2557 132.987 39.875 133.157 39.4205L135.1 39.9659C134.896 40.625 134.552 41.2045 134.069 41.7045C133.586 42.1989 132.989 42.5852 132.279 42.8636C131.569 43.1364 130.771 43.2727 129.884 43.2727ZM139.83 43.1364C139.41 43.1364 139.049 42.9858 138.748 42.6847C138.447 42.3835 138.296 42.0227 138.296 41.6023C138.296 41.1818 138.447 40.821 138.748 40.5199C139.049 40.2187 139.41 40.0682 139.83 40.0682C140.251 40.0682 140.612 40.2187 140.913 40.5199C141.214 40.821 141.364 41.1818 141.364 41.6023C141.364 41.8807 141.293 42.1364 141.151 42.3693C141.015 42.6023 140.83 42.7898 140.597 42.9318C140.37 43.0682 140.114 43.1364 139.83 43.1364ZM150.292 43.2727C149.065 43.2727 148.008 42.983 147.121 42.4034C146.235 41.8239 145.553 41.0256 145.076 40.0085C144.599 38.9915 144.36 37.8295 144.36 36.5227C144.36 35.1932 144.604 34.0199 145.093 33.0028C145.587 31.9801 146.275 31.1818 147.156 30.608C148.042 30.0284 149.076 29.7386 150.258 29.7386C151.178 29.7386 152.008 29.9091 152.746 30.25C153.485 30.5909 154.09 31.0682 154.562 31.6818C155.033 32.2955 155.326 33.0114 155.44 33.8295H153.428C153.275 33.233 152.934 32.7045 152.406 32.2443C151.883 31.7784 151.178 31.5455 150.292 31.5455C149.508 31.5455 148.82 31.75 148.229 32.1591C147.644 32.5625 147.187 33.1335 146.857 33.8722C146.533 34.6051 146.371 35.4659 146.371 36.4545C146.371 37.4659 146.531 38.3466 146.849 39.0966C147.173 39.8466 147.627 40.429 148.212 40.8438C148.803 41.2585 149.496 41.4659 150.292 41.4659C150.815 41.4659 151.289 41.375 151.715 41.1932C152.141 41.0114 152.502 40.75 152.798 40.4091C153.093 40.0682 153.303 39.6591 153.428 39.1818H155.44C155.326 39.9545 155.045 40.6506 154.596 41.2699C154.153 41.8835 153.565 42.3722 152.832 42.7358C152.104 43.0938 151.258 43.2727 150.292 43.2727ZM160.391 25.5455V43H158.38V25.5455H160.391ZM172.325 37.6477V29.9091H174.337V43H172.325V40.7841H172.189C171.882 41.4489 171.405 42.0142 170.757 42.4801C170.109 42.9403 169.291 43.1705 168.303 43.1705C167.484 43.1705 166.757 42.9915 166.121 42.6335C165.484 42.2699 164.984 41.7244 164.621 40.9972C164.257 40.2642 164.075 39.3409 164.075 38.2273V29.9091H166.087V38.0909C166.087 39.0455 166.354 39.8068 166.888 40.375C167.428 40.9432 168.115 41.2273 168.95 41.2273C169.45 41.2273 169.959 41.0994 170.476 40.8438C170.999 40.5881 171.436 40.196 171.788 39.6676C172.146 39.1392 172.325 38.4659 172.325 37.6477ZM178.293 43V25.5455H180.305V31.9886H180.475C180.623 31.7614 180.827 31.4716 181.089 31.1193C181.356 30.7614 181.737 30.4432 182.231 30.1648C182.731 29.8807 183.407 29.7386 184.259 29.7386C185.362 29.7386 186.333 30.0142 187.174 30.5653C188.015 31.1165 188.671 31.8977 189.143 32.9091C189.614 33.9205 189.85 35.1136 189.85 36.4886C189.85 37.875 189.614 39.0767 189.143 40.0938C188.671 41.1051 188.018 41.8892 187.183 42.446C186.347 42.9972 185.384 43.2727 184.293 43.2727C183.452 43.2727 182.779 43.1335 182.273 42.8551C181.768 42.571 181.379 42.25 181.106 41.892C180.833 41.5284 180.623 41.2273 180.475 40.9886H180.237V43H178.293ZM180.271 36.4545C180.271 37.4432 180.415 38.3153 180.705 39.071C180.995 39.821 181.418 40.4091 181.975 40.8352C182.532 41.2557 183.214 41.4659 184.021 41.4659C184.862 41.4659 185.563 41.2443 186.126 40.8011C186.694 40.3523 187.12 39.75 187.404 38.9943C187.694 38.233 187.839 37.3864 187.839 36.4545C187.839 35.5341 187.697 34.7045 187.413 33.9659C187.134 33.2216 186.711 32.6335 186.143 32.2017C185.58 31.7642 184.873 31.5455 184.021 31.5455C183.202 31.5455 182.515 31.7528 181.958 32.1676C181.401 32.5767 180.981 33.1506 180.697 33.8892C180.413 34.6222 180.271 35.4773 180.271 36.4545Z" fill="white"/>
</svg>
