<svg xmlns="http://www.w3.org/2000/svg" width="50" height="50" viewBox="0 0 231 318" fill="none">
<path fill-rule="evenodd" clip-rule="evenodd" d="M0.603027 247.459H8.93822V179.735V176.935H6.35332V76.0174C6.35332 73.9867 6.92222 72.138 8.05952 70.4978C8.33422 70.0956 8.62702 69.7189 8.93822 69.3679V0.526855H0.603027V247.459V247.459Z" fill="#112C3C"/>
<path fill-rule="evenodd" clip-rule="evenodd" d="M12.0493 247.459H20.3846V179.735V176.935H12.0493V247.459ZM20.3846 66.9242V0.526855H12.0493V66.9812C12.1741 66.9188 12.3005 66.8587 12.4289 66.8006C14.2904 66.0194 16.2038 65.8374 18.1691 66.2277C18.9548 66.3717 19.6921 66.605 20.3846 66.9242V66.9242Z" fill="#112C3C"/>
<path fill-rule="evenodd" clip-rule="evenodd" d="M23.4722 247.537H31.8075V179.813V105.941L26.0552 99.8927V176.935H23.4722V247.537ZM31.8075 77.9659V74.5808V0.605347H23.4722V69.2072L31.8075 77.9659Z" fill="#112C3C"/>
<path fill-rule="evenodd" clip-rule="evenodd" d="M34.9819 247.537H43.3172V179.813V118.044L34.9819 109.28V247.537ZM43.3172 90.0605V74.5808V0.605347H34.9819V81.302L43.3172 90.0605V90.0605Z" fill="#112C3C"/>
<path fill-rule="evenodd" clip-rule="evenodd" d="M47.5103 247.537H55.8456V179.813V131.218L47.5103 122.453V247.537ZM55.8456 103.225V74.5808V0.605347H47.5103V94.4664L55.8456 103.225V103.225Z" fill="#112C3C"/>
<path fill-rule="evenodd" clip-rule="evenodd" d="M58.9229 247.537H67.2581V179.813V143.219L58.9229 134.454V247.537V247.537ZM67.2581 115.217V74.5808V0.605347H58.9229V106.459L67.2581 115.217Z" fill="#112C3C"/>
<path fill-rule="evenodd" clip-rule="evenodd" d="M70.394 247.537H78.7293V179.813V155.28L70.394 146.516V247.537V247.537ZM78.7293 127.271V74.5808V0.605347H70.394V118.512L78.7293 127.271Z" fill="#112C3C"/>
<path fill-rule="evenodd" clip-rule="evenodd" d="M81.8652 247.537H90.2004V179.813V167.343L81.8652 158.578V247.537ZM90.2004 139.325V74.5808V0.605347H81.8652V130.566L90.2004 139.325Z" fill="#112C3C"/>
<path fill-rule="evenodd" clip-rule="evenodd" d="M94.354 247.537H102.689V179.813V178.192C102.236 178.083 101.779 177.941 101.32 177.768C100.079 177.325 98.9671 176.57 98.0105 175.555L94.354 171.71V247.537V247.537ZM102.689 67.5556V0.605347H94.354V143.689L95.218 144.597V67.5556H102.689V67.5556Z" fill="#112C3C"/>
<path fill-rule="evenodd" clip-rule="evenodd" d="M105.825 247.537H114.16V179.813V172.33L114.118 172.431C113.575 173.654 112.877 174.722 111.998 175.607C111.119 176.492 110.059 177.195 108.844 177.69C107.879 178.103 106.881 178.353 105.825 178.438V247.537V247.537ZM114.16 67.5556V0.605347H105.825V67.5556H114.16Z" fill="#112C3C"/>
<path fill-rule="evenodd" clip-rule="evenodd" d="M117.276 247.596H125.612V179.872V176.904H123.64V157.013H125.612V74.6395V0.664062H117.276V247.596Z" fill="#112C3C"/>
<path fill-rule="evenodd" clip-rule="evenodd" d="M128.747 247.615H137.082V179.891V176.904H128.747V247.615ZM137.082 157.013V74.6588V0.683228H128.747V157.013H137.082Z" fill="#112C3C"/>
<path fill-rule="evenodd" clip-rule="evenodd" d="M141.275 247.615H149.61V179.891V176.904H141.275V247.615ZM149.61 157.013V74.6588V0.683228H141.275V157.013H149.61Z" fill="#112C3C"/>
<path fill-rule="evenodd" clip-rule="evenodd" d="M152.707 247.615H161.042V179.891V176.904H152.707V247.615ZM161.042 157.013V74.6588V0.683228H152.707V157.013H161.042Z" fill="#112C3C"/>
<path fill-rule="evenodd" clip-rule="evenodd" d="M164.217 247.615H172.552V179.891V176.904H164.217V247.615ZM172.552 157.013V74.6588V0.683228H164.217V157.013H172.552Z" fill="#112C3C"/>
<path fill-rule="evenodd" clip-rule="evenodd" d="M175.649 247.615H183.984V179.891V176.904H175.649V247.615ZM183.984 157.013V74.6588V0.683228H175.649V157.013H183.984Z" fill="#112C3C"/>
<path fill-rule="evenodd" clip-rule="evenodd" d="M187.1 247.615H195.435V179.891V176.902L195.123 176.903H187.1V247.615V247.615ZM195.435 157.009V74.6588V0.683228H187.1V157.013H195.123C195.228 157.013 195.332 157.012 195.435 157.009Z" fill="#112C3C"/>
<path fill-rule="evenodd" clip-rule="evenodd" d="M199.589 247.615H207.924V179.891V173.948C207.326 174.249 206.712 174.529 206.081 174.789C204.03 175.652 201.864 176.25 199.589 176.585V247.615V247.615ZM207.924 67.2453V0.683228H199.589V155.869C200.013 155.6 200.402 155.286 200.756 154.925C202.113 153.515 202.778 151.532 202.778 149V67.2453H207.924Z" fill="#112C3C"/>
<path fill-rule="evenodd" clip-rule="evenodd" d="M211.06 247.615H219.395V179.891V162.336C218.17 164.818 216.613 167.028 214.735 168.942C213.615 170.109 212.389 171.157 211.06 172.083V247.615V247.615ZM219.395 67.2453V0.683228H211.06V67.2453H219.395Z" fill="#112C3C"/>
<path fill-rule="evenodd" clip-rule="evenodd" d="M222.492 247.615H230.827V179.891V74.6588V0.683228H222.492V247.615V247.615Z" fill="#112C3C"/>
<path fill-rule="evenodd" clip-rule="evenodd" d="M36.7016 284.618H14.3691V274.247H36.7016V284.618ZM36.7016 265.918H14.4468C13.112 265.918 12.1008 266.271 11.414 266.966C10.7272 267.673 10.3899 268.708 10.3899 270.055V317.349H0.513672V270.055C0.513672 268.286 0.733869 266.68 1.16137 265.278C1.58937 263.863 2.17247 262.624 2.88537 261.549C3.61137 260.474 4.44107 259.548 5.37387 258.8C6.30707 258.038 7.29217 257.425 8.31627 256.949C9.34017 256.459 10.3771 256.105 11.414 255.887C12.4509 255.656 13.436 255.547 14.3691 255.547H36.7016V265.918ZM87.8213 302.8C87.8213 304.583 87.6011 306.176 87.1733 307.605C86.7456 309.02 86.1755 310.272 85.4623 311.347C84.7494 312.423 83.9328 313.348 82.9996 314.097C82.0537 314.859 81.0817 315.471 80.0575 315.948C79.0336 316.438 77.9837 316.778 76.934 317.009C75.8841 317.241 74.899 317.349 73.9528 317.349H56.1436C54.783 317.349 53.2922 317.091 51.6722 316.587C50.0519 316.084 48.5484 315.254 47.1745 314.097C45.7875 312.94 44.6341 311.443 43.7137 309.592C42.7935 307.741 42.327 305.482 42.327 302.8V288.755C42.327 286.101 42.7935 283.856 43.7137 282.005C44.6341 280.154 45.7875 278.657 47.1745 277.5C48.5484 276.343 50.0519 275.513 51.6722 275.009C53.2922 274.506 54.783 274.247 56.1436 274.247H73.9528C76.4932 274.247 78.6447 274.723 80.4076 275.676C82.1832 276.642 83.6218 277.84 84.7106 279.296C85.7863 280.739 86.5899 282.318 87.0823 284.019C87.575 285.72 87.8213 287.299 87.8213 288.755V302.8V302.8ZM77.9448 288.837C77.9448 287.408 77.6078 286.346 76.921 285.652C76.2339 284.958 75.2488 284.618 73.9528 284.618H56.2215C54.9125 284.618 53.9144 284.972 53.2273 285.666C52.5405 286.373 52.2034 287.408 52.2034 288.755V302.8C52.2034 304.148 52.5405 305.182 53.2273 305.904C53.9144 306.625 54.9125 306.979 56.2215 306.979H73.9528C75.3007 306.979 76.2988 306.625 76.9598 305.904C77.6208 305.182 77.9448 304.148 77.9448 302.8V288.837V288.837ZM132.136 284.618H109.92C108.586 284.618 107.562 284.972 106.888 285.666C106.201 286.373 105.864 287.408 105.864 288.755V317.349H95.9871V288.755C95.9871 286.986 96.1946 285.38 96.6351 283.978C97.0628 282.563 97.6332 281.324 98.3591 280.249C99.0848 279.174 99.9142 278.248 100.848 277.5C101.781 276.738 102.766 276.125 103.79 275.649C104.814 275.159 105.851 274.819 106.9 274.587C107.95 274.356 108.935 274.247 109.843 274.247H132.136V284.618V284.618ZM178.382 317.349H151.604C150.243 317.349 148.753 317.091 147.133 316.587C145.512 316.084 144.009 315.254 142.635 314.097C141.248 312.94 140.094 311.443 139.174 309.592C138.254 307.741 137.787 305.482 137.787 302.8V288.755C137.787 287.775 137.891 286.741 138.111 285.652C138.319 284.563 138.656 283.474 139.122 282.399C139.576 281.324 140.159 280.29 140.885 279.31C141.598 278.33 142.479 277.459 143.503 276.724C144.527 275.975 145.707 275.377 147.055 274.928C148.39 274.478 149.919 274.247 151.604 274.247H178.382V284.618H151.604C150.321 284.618 149.336 284.958 148.662 285.652C148.001 286.346 147.664 287.408 147.664 288.837V302.8C147.664 304.148 148.001 305.182 148.688 305.904C149.375 306.625 150.373 306.979 151.682 306.979H178.382V317.349ZM230.708 288.524C230.708 289.953 230.461 291.504 229.982 293.165C229.502 294.825 228.724 296.363 227.649 297.792C226.573 299.207 225.16 300.405 223.436 301.358C221.699 302.311 219.587 302.8 217.111 302.8H199.302V292.947H217.111C218.446 292.947 219.483 292.511 220.222 291.654C220.96 290.783 221.323 289.721 221.323 288.442C221.323 287.081 220.909 286.02 220.092 285.257C219.263 284.481 218.278 284.101 217.111 284.101H199.302C197.954 284.101 196.917 284.522 196.191 285.393C195.452 286.251 195.09 287.326 195.09 288.605V303.073C195.09 304.461 195.491 305.536 196.321 306.298C197.137 307.074 198.162 307.455 199.38 307.455H217.111V317.349H199.302C197.928 317.349 196.463 317.091 194.869 316.587C193.288 316.084 191.823 315.267 190.475 314.138C189.114 313.008 187.987 311.538 187.066 309.714C186.159 307.891 185.706 305.686 185.706 303.073V288.524C185.706 287.081 185.952 285.543 186.431 283.883C186.911 282.209 187.689 280.671 188.764 279.256C189.84 277.826 191.24 276.642 192.977 275.676C194.714 274.723 196.814 274.247 199.302 274.247H217.111C218.472 274.247 219.949 274.506 221.531 275.009C223.112 275.513 224.577 276.329 225.938 277.459C227.286 278.589 228.426 280.058 229.334 281.882C230.254 283.706 230.708 285.911 230.708 288.524V288.524Z" fill="#112C3C"/>
</svg>