<svg width="200" height="200" viewBox="0 0 200 200" fill="none" xmlns="http://www.w3.org/2000/svg">
<path d="M114.989 44.5973C116.43 44.466 119.821 45.3232 122.095 49.7275C122.161 49.855 122.345 49.858 122.411 49.7302C124.735 45.1838 127.597 40.5935 136.582 46.1062C136.735 46.2003 136.936 46.0267 136.861 45.863C135.414 42.6978 134.672 36.7516 141.424 33.7773C141.575 33.7108 141.567 33.4862 141.409 33.4399L139.755 32.9564C139.576 32.9042 139.596 32.6603 139.781 32.6445C141.598 32.4897 144.09 32.6078 143.217 33.6689C142.183 34.9242 141.929 35.7179 142.181 37.0286" stroke="black" stroke-width="1.42857" stroke-linecap="round"/>
<path fill-rule="evenodd" clip-rule="evenodd" d="M43.8582 91.2832C43.5903 91.2073 43.3101 91.3555 43.2221 91.6197L42.5897 93.5201C42.5292 93.7018 42.3738 93.8357 42.1851 93.8686L40.212 94.2125C39.9377 94.2603 39.7496 94.5155 39.785 94.7917L40.0397 96.7782C40.0641 96.9682 39.9821 97.1563 39.8264 97.2678L38.1979 98.4337C37.9715 98.5958 37.9127 98.9074 38.0644 99.1408L39.1559 100.82C39.2603 100.981 39.2681 101.186 39.1761 101.354L38.2148 103.111C38.0811 103.355 38.1633 103.661 38.4013 103.806L40.1133 104.845C40.2771 104.945 40.373 105.126 40.3631 105.317L40.2593 107.317C40.2449 107.595 40.4518 107.836 40.7289 107.863L42.7224 108.056C42.913 108.075 43.0781 108.197 43.1522 108.373L43.9265 110.22C44.0342 110.477 44.3248 110.604 44.5862 110.508L46.4663 109.817C46.6461 109.751 46.8476 109.789 46.991 109.916L48.4901 111.245C48.6985 111.429 49.0153 111.417 49.2092 111.217L50.6035 109.78C50.7369 109.642 50.935 109.589 51.1193 109.641L53.0462 110.187C53.3141 110.263 53.5943 110.115 53.6822 109.851L54.3146 107.951C54.3751 107.769 54.5305 107.635 54.7192 107.602L56.6923 107.258C56.9666 107.21 57.1548 106.955 57.1194 106.679L56.8646 104.692C56.8403 104.502 56.9222 104.314 57.078 104.203L58.7064 103.037C58.9328 102.875 58.9916 102.563 58.8399 102.33L57.7484 100.65C57.644 100.49 57.6363 100.285 57.7282 100.117L58.6896 98.3598C58.8232 98.1155 58.741 97.8093 58.503 97.6648L56.791 96.6254C56.6273 96.526 56.5313 96.3446 56.5413 96.1533L56.645 94.1532C56.6595 93.8751 56.4526 93.6349 56.1754 93.608L54.182 93.4143C53.9913 93.3958 53.8262 93.274 53.7522 93.0974L52.9778 91.2503C52.8702 90.9935 52.5795 90.8668 52.3182 90.9628L50.4381 91.6532C50.2583 91.7193 50.0567 91.6812 49.9133 91.5542L48.4142 90.226C48.2058 90.0413 47.889 90.0533 47.6952 90.2532L46.3009 91.691C46.1675 91.8285 45.9694 91.8817 45.7851 91.8294L43.8582 91.2832ZM45.7772 99.2051C45.979 99.5864 45.8334 100.059 45.4522 100.261C45.0709 100.462 44.5983 100.317 44.3966 99.9356C44.1949 99.5543 44.3404 99.0817 44.7217 98.88C45.1029 98.6783 45.5755 98.8238 45.7772 99.2051ZM46.5443 98.7993C46.9701 99.6041 46.6629 100.602 45.858 101.028C45.0531 101.454 44.0554 101.146 43.6296 100.341C43.2037 99.5365 43.511 98.5388 44.3158 98.113C45.1207 97.6871 46.1184 97.9944 46.5443 98.7993ZM52.336 102.509C52.7172 102.307 52.8628 101.835 52.6611 101.453C52.4593 101.072 51.9867 100.927 51.6055 101.128C51.2242 101.33 51.0787 101.803 51.2804 102.184C51.4821 102.565 51.9547 102.711 52.336 102.509ZM52.7418 103.276C53.5467 102.85 53.8539 101.852 53.4281 101.048C53.0022 100.243 52.0045 99.9355 51.1997 100.361C50.3948 100.787 50.0875 101.785 50.5134 102.59C50.9392 103.395 51.9369 103.702 52.7418 103.276ZM48.7155 96.5438C48.7013 96.3046 48.4958 96.1222 48.2566 96.1365C48.0174 96.1507 47.835 96.3562 47.8493 96.5954L48.3409 104.845C48.3552 105.084 48.5607 105.267 48.7999 105.253C49.0391 105.238 49.2214 105.033 49.2072 104.794L48.7155 96.5438Z" fill="black"/>
<path d="M166.167 71.5371C166.167 76.5043 162.103 80.5418 157.076 80.5418C152.048 80.5418 147.984 76.5043 147.984 71.5371C147.984 66.5698 152.048 62.5323 157.076 62.5323C162.103 62.5323 166.167 66.5698 166.167 71.5371Z" stroke="black" stroke-width="1.42857"/>
<path d="M157.162 75.8759V77.2643" stroke="black" stroke-width="1.42857" stroke-linecap="round"/>
<path d="M157.162 67.198V65.8096" stroke="black" stroke-width="1.42857" stroke-linecap="round"/>
<path d="M159.592 67.7879C158.976 67.4815 158.04 67.1949 157.165 67.1983C156.11 67.2023 155.143 67.6274 154.931 68.9464C154.651 70.6861 156.774 71.3106 158.038 71.9392C159.786 72.8082 159.77 74.437 158.718 75.2217C158.245 75.5746 157.707 75.7683 157.165 75.8415C156.371 75.9484 155.565 75.798 154.931 75.5113" stroke="black" stroke-width="1.42857" stroke-linecap="round"/>
<path d="M105.009 50.7107C103.505 45.7065 103.78 35.5314 116.898 34.6569C129.914 33.7891 131.91 33.9625 134.08 34.3096" stroke="black" stroke-width="1.42857" stroke-linecap="round"/>
<path d="M80.2777 144.43C84.2633 141.535 93.0365 136.255 96.2261 138.29C100.212 140.834 97.6671 141.184 95.6314 140.658" stroke="black" stroke-width="1.42857" stroke-linecap="round"/>
<path d="M91.9851 140.743C94.0385 140.435 98.181 140.474 98.3183 143.093C98.3959 144.619 97.975 144.366 97.205 143.889C96.6529 143.548 95.9217 143.093 95.0651 143.093H91.3852" stroke="black" stroke-width="1.42857" stroke-linecap="round"/>
<path d="M91.3851 143.215H95.0872C95.949 143.215 96.6846 143.68 97.2401 144.028C97.7835 145.014 98.1859 146.831 95.4325 146.214C92.6792 145.597 91.5863 145.786 91.3851 145.957" stroke="black" stroke-width="1.42857" stroke-linecap="round"/>
<path d="M95.4803 146.166C96.3908 147.206 97.4413 149.165 94.3704 148.68C91.2995 148.194 88.8833 149.691 88.059 150.5C86.6664 151.425 83.3664 152.581 81.3192 149.807" stroke="black" stroke-width="1.42857" stroke-linecap="round"/>
<path d="M65.9936 148.833C80.424 140.833 80.4388 148.368 79.2197 152.963C77.4163 157.608 68.4704 162.725 64.4542 163.337C58.7889 164.639 48.7573 163.096 53.96 146.511C60.4648 125.779 63.4072 110.638 85.1372 106.595" stroke="black" stroke-width="1.42857" stroke-linecap="round"/>
<path d="M73.856 130.893C73.856 138.722 73.3978 138.537 70.0378 145.645" stroke="black" stroke-width="1.42857" stroke-linecap="round"/>
<path d="M103.36 135.058V132.802" stroke="black" stroke-width="1.42857" stroke-linecap="round"/>
<path d="M105.964 134.885L106.832 132.108" stroke="black" stroke-width="1.42857" stroke-linecap="round"/>
<path d="M108.567 135.579L110.65 130.719" stroke="black" stroke-width="1.42857" stroke-linecap="round"/>
<path d="M68.476 162.827C69.0803 169.598 69.338 169.17 70.3747 173.027C80.8424 176.113 104.002 179.661 112.906 169.17" stroke="black" stroke-width="1.42857" stroke-linecap="round"/>
<path d="M79.2364 122.215L79.5639 121.718C81.5377 118.74 85.3438 117.551 88.6748 118.873C91.6636 120.059 95.0802 119.233 97.1868 116.814L99.8894 113.711" stroke="black" stroke-width="1.42857" stroke-linecap="round"/>
<path d="M97.9964 106.441C98.7556 104.31 98.0614 102.877 97.3879 102.604C93.3289 106.209 87.1725 104.871 84.8919 102.685C84.0796 103.407 84.5522 105.54 84.8919 106.195C89.2877 110.915 95.5445 108.271 97.9964 106.441Z" fill="black"/>
<path d="M109.958 71.4046C108.067 78.2142 107.118 78.8175 104.366 81.8343C104.366 78.853 103.853 73.8485 103.853 71.7645C94.8372 71.7645 87.2292 68.0778 84.5489 66.2342C84.6467 72.4858 78.7939 76.5734 78.7939 76.5734C78.7939 76.5734 79.633 79.0981 80.1133 84.7485C80.4988 89.2691 79.3928 88.3955 78.7939 87.3935C77.0683 81.8151 74.2398 83.3059 73.039 84.7485C58.3271 60.8025 80.9524 56.1757 85.2694 56.6165C88.5308 53.8273 93.079 51.6415 96.2752 51.3209C107.809 50.1647 113.027 60.3633 109.958 71.4046Z" fill="black"/>
<path d="M78.8893 91.6548C80.4498 101.179 90.9191 108.027 98.4752 100.312C106.031 92.5969 104.518 78.4744 103.711 71.8843" stroke="black" stroke-width="1.42857" stroke-linecap="round"/>
<path d="M72.9529 84.033C72.0364 86.3536 72.8963 91.4958 78.8894 91.4958" stroke="black" stroke-width="1.42857" stroke-linecap="round"/>
<path d="M75.9727 85.4215C75.8664 85.8511 75.9514 86.8695 77.1541 87.5042" stroke="black" stroke-width="1.42857" stroke-linecap="round"/>
<path d="M103.708 90.281C105.684 89.4487 107.079 86.366 106.542 81.4297" stroke="black" stroke-width="1.42857" stroke-linecap="round"/>
<path d="M92.2527 96.0649C94.0959 96.6198 93.9794 95.0924 95.3767 93.7521" stroke="black" stroke-width="1.42857" stroke-linecap="round"/>
<path d="M98.2404 85.2481C98.9593 85.2481 99.542 84.6264 99.542 83.8596C99.542 83.0928 98.9593 82.4712 98.2404 82.4712C97.5215 82.4712 96.9387 83.0928 96.9387 83.8596C96.9387 84.6264 97.5215 85.2481 98.2404 85.2481Z" fill="black"/>
<path d="M86.7858 85.2479C87.6005 85.2479 88.261 84.704 88.261 84.033C88.261 83.362 87.6005 82.8181 86.7858 82.8181C85.971 82.8181 85.3105 83.362 85.3105 84.033C85.3105 84.704 85.971 85.2479 86.7858 85.2479Z" fill="black"/>
<path d="M83.9226 81.0825C84.2082 80.3492 85.4429 78.9929 88.0879 79.4328" stroke="black" stroke-width="1.42857" stroke-linecap="round"/>
<path d="M96.0715 79.5207C96.7023 79.1278 98.419 78.5777 100.237 79.5207" stroke="black" stroke-width="1.42857" stroke-linecap="round"/>
<path d="M91.6978 83.5123C91.4982 85.1706 91.3593 88.5338 92.427 88.719" stroke="black" stroke-width="1.42857" stroke-linecap="round"/>
<path d="M89.2658 138.876L84.7893 131.355C84.4397 130.768 84.6382 130.006 85.2307 129.666C85.8084 129.335 86.5431 129.528 86.8838 130.099L91.5588 137.922" stroke="black" stroke-width="1.42857" stroke-linecap="round"/>
<path d="M90.3443 165.083C92.7247 157.388 98.267 142.45 101.787 142.877C101.947 142.897 102.107 142.942 102.267 142.965L115.51 144.82" stroke="black" stroke-width="1.42857" stroke-linecap="round"/>
<path d="M117.419 147.901L116.204 151.546" stroke="black" stroke-width="1.42857" stroke-linecap="round"/>
<path d="M102.105 144.777C99.5657 146.327 95.7879 156.966 93.5842 164.125C93.1031 165.685 94.1663 167.281 95.7909 167.485L108.342 169.054C109.625 169.214 110.837 168.438 111.226 167.211L112.212 164.093" stroke="black" stroke-width="1.42857" stroke-linecap="round"/>
<path d="M104.14 146.165C104.978 145.861 106.721 144.066 106.223 142.327C106.139 142.025 105.985 141.725 105.747 141.434C104.14 139.471 101.373 141.435 102.088 143.041" stroke="black" stroke-width="1.42857" stroke-linecap="round"/>
<path d="M106.138 142.375C106.992 141.33 109.302 140.853 110.51 142.913C111.633 145.421 109.475 146.854 108.179 147.033" stroke="black" stroke-width="1.42857" stroke-linecap="round"/>
<path d="M110.65 142.862C111.552 142.174 113.968 141.246 115.365 143.042C117.023 145.827 114.056 147.624 112.832 147.354" stroke="black" stroke-width="1.42857" stroke-linecap="round"/>
<path d="M115.336 143.049C116.488 142.373 118.534 142.079 119.321 143.843C120.108 145.607 118.169 147.901 116.308 147.901" stroke="black" stroke-width="1.42857" stroke-linecap="round"/>
<path d="M108.761 157.62C108.287 158.268 108.385 159.938 112.559 161.438" stroke="black" stroke-width="1.42857" stroke-linecap="round"/>
<path d="M119.675 154.178C115.164 153.309 110.534 152.987 108.78 152.935C107.839 152.907 106.795 153.71 107.32 154.62C107.465 154.852 107.923 155.37 108.584 155.578C111.395 156.494 112.594 156.575 113.831 156.579" stroke="black" stroke-width="1.42857" stroke-linecap="round"/>
<path d="M113.773 156.541C112.535 156.537 111.336 156.456 108.524 155.538C107.883 155.77 107.8 156.873 108.815 157.563C109.456 157.999 110.617 158.535 112.535 159.182" stroke="black" stroke-width="1.42857" stroke-linecap="round"/>
<path d="M98.1532 106.595C112.181 112.165 123.367 128.533 121.989 150.986C121.788 154.156 120.147 160.721 115.191 161.612" stroke="black" stroke-width="1.42857" stroke-linecap="round"/>
<path d="M110.216 74.4873C112.935 73.7353 119.015 72.96 121.584 75.8758C124.794 79.5204 123.232 80.6485 126.877 75.8758C129.793 72.0575 141.571 71.4501 147.096 71.6237" stroke="black" stroke-width="1.42857" stroke-linecap="round"/>
<path d="M160.981 61.9046C160.634 61.0657 160.327 57.9999 160.981 55.6566C162.022 51.9252 165.406 38.2146 161.762 35.1772C157.048 31.2488 153.778 33.0947 146.402 33.8756" stroke="black" stroke-width="1.42857" stroke-linecap="round"/>
<path d="M117.163 55.1192L117.5 66.0613C117.503 66.1605 117.588 66.2369 117.687 66.2289L122.719 65.8232C122.812 65.8156 122.882 65.7357 122.878 65.6423L122.373 54.4576C122.369 54.3558 122.278 54.2799 122.177 54.2933L117.314 54.9418C117.225 54.9536 117.16 55.0302 117.163 55.1192Z" stroke="black" stroke-width="1.42857" stroke-linecap="round"/>
<path d="M126.356 52.3735V65.9013C126.356 66.0239 126.48 66.1078 126.593 66.0626L131.284 64.2027C131.348 64.1773 131.391 64.1166 131.393 64.0478L131.817 52.7859C131.82 52.6929 131.75 52.6137 131.657 52.6064L126.543 52.2005C126.442 52.1925 126.356 52.2723 126.356 52.3735Z" stroke="black" stroke-width="1.42857" stroke-linecap="round"/>
<path d="M136.162 49.2351V64.2476C136.162 64.3434 136.24 64.4211 136.336 64.4211H141.369C141.465 64.4211 141.542 64.3434 141.542 64.2476V49.2351C141.542 49.1392 141.465 49.0615 141.369 49.0615H136.336C136.24 49.0615 136.162 49.1392 136.162 49.2351Z" stroke="black" stroke-width="1.42857" stroke-linecap="round"/>
<path d="M146.572 46.1875L146.147 63.926C146.144 64.0427 146.255 64.1288 146.368 64.0972L151.582 62.6306C151.651 62.6114 151.7 62.5527 151.708 62.4822L153.496 45.9637C153.507 45.8584 153.423 45.7676 153.317 45.7716L146.739 46.0183C146.647 46.0217 146.574 46.0958 146.572 46.1875Z" stroke="black" stroke-width="1.42857" stroke-linecap="round"/>
<path d="M71.5103 44.1155C71.389 46.1015 71.3066 50.1663 71.9469 50.537" stroke="black" stroke-width="1.42857" stroke-linecap="round"/>
<path d="M68.1287 48.1072L74.7237 47.2394" stroke="black" stroke-width="1.42857" stroke-linecap="round"/>
<path d="M123.056 102.43C122.935 104.416 122.852 108.481 123.493 108.851" stroke="black" stroke-width="1.42857" stroke-linecap="round"/>
<path d="M119.675 106.422L126.27 105.554" stroke="black" stroke-width="1.42857" stroke-linecap="round"/>
<path d="M149.853 121.174C149.853 121.415 149.627 121.841 148.783 122.248C147.988 122.632 146.841 122.889 145.534 122.889C144.228 122.889 143.08 122.632 142.286 122.248C141.441 121.841 141.216 121.415 141.216 121.174C141.216 120.932 141.441 120.506 142.286 120.099C143.08 119.715 144.228 119.458 145.534 119.458C146.841 119.458 147.988 119.715 148.783 120.099C149.627 120.506 149.853 120.932 149.853 121.174Z" stroke="black" stroke-width="1.42857"/>
<path d="M140.848 121.26V124.393C140.848 124.443 140.868 124.489 140.906 124.522C142.196 125.621 145.592 127.253 149.352 125.339" stroke="black" stroke-width="1.42857" stroke-linecap="round"/>
<path d="M54.2244 62.1651C54.2244 62.4065 53.9986 62.8322 53.154 63.24C52.3596 63.6235 51.212 63.8806 49.9056 63.8806C48.5992 63.8806 47.4516 63.6235 46.6572 63.24C45.8127 62.8322 45.5868 62.4065 45.5868 62.1651C45.5868 61.9237 45.8127 61.498 46.6572 61.0903C47.4516 60.7068 48.5992 60.4496 49.9056 60.4496C51.212 60.4496 52.3596 60.7068 53.154 61.0903C53.9986 61.498 54.2244 61.9237 54.2244 62.1651Z" stroke="black" stroke-width="1.42857"/>
<path d="M45.22 62.252V65.3845C45.22 65.4342 45.2401 65.4808 45.278 65.513C46.5681 66.6129 49.9637 68.2449 53.7241 66.3305" stroke="black" stroke-width="1.42857" stroke-linecap="round"/>
<path d="M142.946 92.2777C142.778 92.4506 142.319 92.598 141.43 92.3007C140.593 92.0211 139.592 91.4045 138.656 90.4929C137.72 89.5813 137.077 88.5963 136.776 87.7673C136.456 86.8859 136.591 86.4234 136.759 86.2505C136.928 86.0775 137.387 85.9302 138.276 86.2275C139.113 86.5071 140.114 87.1237 141.05 88.0353C141.986 88.9469 142.628 89.9318 142.93 90.7609C143.25 91.6422 143.115 92.1048 142.946 92.2777Z" stroke="black" stroke-width="1.42857"/>
<path d="M136.436 86.0563L134.25 88.3001C134.215 88.3357 134.197 88.3831 134.202 88.4327C134.359 90.1207 135.652 93.6592 139.682 94.9119" stroke="black" stroke-width="1.42857" stroke-linecap="round"/>
</svg>
