<svg width="400" height="413" viewBox="0 0 400 413" fill="none" xmlns="http://www.w3.org/2000/svg">
<path d="M255.77 263.176V316.109C255.77 316.285 255.907 316.432 256.083 316.444L300.594 319.445C300.61 319.446 300.626 319.446 300.642 319.444L318.255 318.103" stroke="black" stroke-width="2.35161" stroke-linecap="round"/>
<path d="M255.77 263.007L300.241 257.511C300.441 257.486 300.618 257.642 300.618 257.844V318.774" stroke="black" stroke-width="2.35161" stroke-linecap="round"/>
<path d="M309.484 257.968L366.65 261.643C366.827 261.655 366.964 261.802 366.964 261.979V284.172" stroke="black" stroke-width="2.35161" stroke-linecap="round"/>
<path d="M255.934 316.423H239.137C238.951 316.423 238.801 316.573 238.801 316.759V336.626C238.801 336.792 238.922 336.934 239.087 336.958L288.639 344.416C288.842 344.446 289.025 344.289 289.025 344.084V324.821" stroke="black" stroke-width="2.35161" stroke-linecap="round"/>
<path d="M288.855 344.474L328.665 340.779" stroke="black" stroke-width="2.35161" stroke-linecap="round"/>
<path d="M312.375 343.466V301.473L330.516 343.466H312.375Z" fill="black" fill-opacity="0.3"/>
<path d="M362.741 323.244L336.541 268.715C336.322 268.259 336.666 267.733 337.172 267.752L349.094 268.2C349.342 268.209 349.564 268.354 349.673 268.576L375.994 322.543C376.12 322.801 376.068 323.11 375.865 323.312L370.511 328.667C370.391 328.786 370.231 328.856 370.063 328.863L359.467 329.293C358.876 329.317 358.544 328.62 358.936 328.177L362.639 323.98C362.818 323.777 362.858 323.487 362.741 323.244Z" fill="black"/>
<path d="M347.786 339.138L345.278 341.756C344.859 342.193 345.186 342.917 345.791 342.892L355.803 342.469C355.961 342.462 356.111 342.4 356.228 342.294L358.631 340.099C359.084 339.685 358.792 338.931 358.178 338.931H348.271C348.088 338.931 347.913 339.006 347.786 339.138Z" fill="black"/>
<path d="M272.227 266.788V261.58C272.227 261.243 272.476 260.958 272.81 260.914L281.544 259.749C281.947 259.696 282.305 260.009 282.305 260.415V265.769C282.305 266.11 282.05 266.397 281.711 266.436L272.976 267.455C272.577 267.502 272.227 267.19 272.227 266.788Z" fill="black"/>
<path d="M257.109 334.482V338.859C257.109 339.191 257.351 339.472 257.678 339.523L266.077 340.826C266.484 340.89 266.852 340.575 266.852 340.163V335.495C266.852 335.155 266.598 334.869 266.26 334.828L257.862 333.815C257.462 333.766 257.109 334.079 257.109 334.482Z" fill="black"/>
<path d="M272.902 311.552V316.811C272.902 317.161 273.171 317.452 273.52 317.48L282.591 318.212C282.982 318.243 283.317 317.935 283.317 317.542V311.552C283.317 311.18 283.016 310.88 282.645 310.88H273.574C273.203 310.88 272.902 311.18 272.902 311.552Z" fill="black"/>
<path d="M257.109 324.562V317.311C257.109 316.921 257.439 316.614 257.827 316.64L266.226 317.22C266.578 317.244 266.852 317.537 266.852 317.89V325.575C266.852 325.978 266.499 326.291 266.099 326.242L257.701 325.229C257.363 325.188 257.109 324.902 257.109 324.562Z" fill="black"/>
<path d="M330.492 343.194L306.245 287.559C306.193 287.44 306.215 287.301 306.301 287.203L323.629 267.423C323.788 267.241 324.081 267.282 324.185 267.5L351.072 323.929C351.134 324.061 351.105 324.217 351 324.317L331.032 343.304C330.863 343.464 330.586 343.408 330.492 343.194Z" stroke="black" stroke-width="2.35161" stroke-linecap="round"/>
<path d="M331.02 343.466L367.009 341.792C367.089 341.789 367.166 341.756 367.224 341.701L386.974 323.085C387.2 322.872 387.041 322.492 386.73 322.505L357.358 323.646" stroke="black" stroke-width="2.35161" stroke-linecap="round"/>
<path d="M323.965 267.207L358.708 268.543C358.829 268.548 358.937 268.617 358.993 268.724L386.954 322.47" stroke="black" stroke-width="2.35161" stroke-linecap="round"/>
<path d="M78.6016 407.904C86.7496 404.075 106.583 396.664 120.734 397.641C122.74 397.722 125.77 398.572 121.839 401.306C117.908 404.044 115.943 405.462 115.452 405.828C113.405 407.538 111.398 411.153 119.751 411.936C130.192 412.913 159.672 402.284 218.019 410.101" stroke="black" stroke-width="1.67972" stroke-linecap="round"/>
<path d="M13.3086 334.731V327.677" stroke="black" stroke-width="1.67972" stroke-linecap="round"/>
<path d="M7 331.596L10.8466 334.731" stroke="black" stroke-width="1.67972" stroke-linecap="round"/>
<path d="M15.8711 334.731L18.7568 330.14" stroke="black" stroke-width="1.67972" stroke-linecap="round"/>
<path d="M160.488 377.061V366.646" stroke="black" stroke-width="1.67972" stroke-linecap="round"/>
<path d="M151.121 372.432L156.836 377.061" stroke="black" stroke-width="1.67972" stroke-linecap="round"/>
<path d="M164.301 377.061L168.588 370.283" stroke="black" stroke-width="1.67972" stroke-linecap="round"/>
<path d="M224.187 119.895L224.521 172.648C224.523 172.83 224.379 172.98 224.198 172.986L183.538 174.486L158.174 172.974" stroke="black" stroke-width="1.67972" stroke-linecap="round"/>
<path d="M224.188 119.727H183.202C183.017 119.727 182.866 119.877 182.866 120.063V142.235" stroke="black" stroke-width="1.67972" stroke-linecap="round"/>
<path d="M176.484 119.727H142.05C141.865 119.727 141.714 119.877 141.714 120.063V150.298" stroke="black" stroke-width="1.67972" stroke-linecap="round"/>
<path d="M209.742 127.076V122.874C209.742 122.525 209.476 122.235 209.129 122.204L200.73 121.471C200.337 121.436 200 121.746 200 122.14V126.569C200 126.924 200.276 127.218 200.631 127.239L209.03 127.747C209.416 127.77 209.742 127.463 209.742 127.076Z" fill="black"/>
<path d="M208.566 168.103V173.065C208.566 173.415 208.298 173.706 207.95 173.735L199.551 174.426C199.16 174.458 198.824 174.149 198.824 173.757V168.103C198.824 167.732 199.125 167.431 199.496 167.431H207.895C208.266 167.431 208.566 167.732 208.566 168.103Z" fill="black"/>
<path d="M183.371 174.486V163.904" stroke="black" stroke-width="1.67972" stroke-linecap="round"/>
<path d="M133.988 212.112C133.988 208.416 133.988 191.586 133.988 186.076" stroke="black" stroke-width="1.67972" stroke-linecap="round"/>
<path d="M134.657 149.782C134.657 134.789 130.724 127.48 125.293 120.171" stroke="black" stroke-width="1.67972" stroke-linecap="round"/>
<path d="M71.5006 208.92C68.3091 169.951 70.6039 143.579 84.2489 122.421C88.369 116.032 97.5721 110.26 103.757 112.488" stroke="black" stroke-width="1.67972" stroke-linecap="round"/>
<path d="M127.157 110.447C130.173 108.068 152.879 107.702 154.051 76.4014C162.199 75.5493 163.671 70.5919 159.307 66.2406C153.245 60.1972 154.021 56.7232 154.79 52.8918C156.133 47.8288 155.656 42.7324 155.122 41.7171" stroke="black" stroke-width="1.67972" stroke-linecap="round"/>
<path d="M145.576 66.9675C146.465 67.2095 147.494 66.2764 147.873 64.883C148.253 63.4896 147.839 62.1636 146.95 61.9215C146.061 61.6796 145.033 62.6127 144.653 64.0064C144.274 65.3998 144.687 66.7256 145.576 66.9675Z" fill="black"/>
<path d="M139.444 62.0456C139.255 60.0539 139.997 55.9915 144.469 55.6733" stroke="black" stroke-width="1.67972" stroke-linecap="round"/>
<path d="M112.343 60.7576C111.912 62.0945 111.764 65.0321 114.61 66.0909" stroke="black" stroke-width="1.67972" stroke-linecap="round"/>
<path d="M82.1874 51.0576C81.0384 68.7453 92.4607 80.6291 100.808 89.8155C107.994 84.779 119.416 73.4634 114.472 72.9615C109.275 72.4337 102.322 59.2353 106.75 54.435C111.946 48.8027 118.023 55.7017 119.677 61.2769L123.39 52.6948C121.421 47.224 119.757 37.4184 128.856 41.9646C137.956 46.5107 150.191 43.6176 155.171 41.6031C164.47 33.1611 178.258 14.3898 159.022 6.84023C143.023 0.561153 124.603 12.9993 113.7 23.5181C105.349 22.3225 83.7537 26.9414 82.1874 51.0576Z" fill="black"/>
<path d="M101.238 88.5896C105.413 92.5718 107.659 96.0208 108.315 103.63" stroke="black" stroke-width="1.67972" stroke-linecap="round"/>
<path d="M115.441 131.485C118.889 157.895 127.499 160.27 131.373 158.156C139.12 154.613 156.19 148.794 162.488 153.867C168.786 158.94 161.238 165.804 156.677 168.601C141.557 179.357 108.73 196.989 98.3836 181.471C88.0369 165.953 87.3247 146.406 88.2618 138.573" stroke="black" stroke-width="1.67972" stroke-linecap="round"/>
<path d="M104.095 112.767C103.116 109.354 102.543 102.844 108.077 104.109C114.995 105.69 128.888 115.932 127.855 119.724" stroke="black" stroke-width="1.67972" stroke-linecap="round"/>
<path d="M183.421 157.467C184.045 159.384 183.044 163.818 173.882 164.893C170.415 165.3 169.895 165.243 166.641 164.968" stroke="black" stroke-width="1.67972" stroke-linecap="round"/>
<path d="M184.693 151.897C186.221 152.327 187.594 153.991 183.422 157.467C182.509 158.227 181.331 159.074 179.832 160.013" stroke="black" stroke-width="1.67972" stroke-linecap="round"/>
<path d="M184.009 147.861C185.61 147.842 187.159 148.744 184.689 151.897C183.62 153.262 181.797 155.048 178.898 157.365" stroke="black" stroke-width="1.67972" stroke-linecap="round"/>
<path d="M164.438 150.328C171.716 142.849 174.825 142.472 173.364 148.599C171.902 154.725 177.325 149.461 180.143 146.431C181.275 145.172 183.795 143.147 184.82 145.12C185.173 145.799 184.784 146.781 184.011 147.861C182.537 149.918 179.666 152.326 177.865 153.653" stroke="black" stroke-width="1.67972" stroke-linecap="round"/>
<path d="M124.862 305.801C136.338 262.831 136.673 246.507 134.818 210.695C114.108 224.742 81.1183 213.479 70.6969 208.417C64.7039 244.266 68.5729 312.572 77.2684 354.398C80.6139 359.867 87.8226 357.055 91.0087 354.969L94.9914 325.924L99.5716 351.361C102.12 355.614 109.661 354.778 113.113 353.83L124.862 305.801Z" fill="black"/>
<path d="M70.3261 364.705C69.3853 361.883 75.9251 363.529 78.8926 364.705C78.8926 367.258 85.1636 369.24 88.2991 369.912C76.2051 369.072 70.83 366.216 70.3261 364.705Z" fill="black"/>
<path d="M97.2995 362.114C95.2838 360.233 98.8113 359.988 100.995 360.267C101.667 365.642 102.171 364.13 105.362 365.978C104.858 366.818 99.3152 363.996 97.2995 362.114Z" fill="black"/>
<path d="M113.111 357.082C114.169 358.503 117.476 361.342 120.652 361.342C123.369 361.342 124.422 364.587 121.445 366.206C116.484 368.235 105.054 367.301 101.402 362.759V356.474" stroke="black" stroke-width="1.67972" stroke-linecap="round"/>
<path d="M89.8467 358.825C90.7818 359.642 93.1729 361.352 95.2569 361.678C97.8618 362.084 101.49 365.145 99.4649 368.806C97.6615 372.062 93.6538 371.383 91.2493 370.637L81.8315 367.177C80.8296 366.767 79.2266 366.156 79.2266 363.713C79.2266 361.271 79.2266 360.253 79.2266 360.048" stroke="black" stroke-width="1.67972" stroke-linecap="round"/>
</svg>
