<svg width="504" height="342" viewBox="0 0 504 342" fill="none" xmlns="http://www.w3.org/2000/svg">
<path d="M232.255 171.372C237.411 166.21 247.805 157.436 248.131 163.63C248.538 171.372 238.361 191.337 248.131 182.373C257.901 173.409 269.706 157.518 270.52 163.63C271.334 169.742 272.556 171.371 283.954 160.37" stroke="black" stroke-width="3" stroke-linecap="round"/>
<path d="M34.4434 259.637C36.3449 262.218 42.4299 267.241 51.5574 266.695" stroke="black" stroke-width="3" stroke-linecap="round"/>
<path d="M148.993 271.021C140.01 275.916 113.794 280.557 80.3847 260.329C79.9543 260.069 79.3902 260.158 79.0648 260.542C72.5798 268.195 54.2519 283.874 30.3365 285.818C23.2627 286.393 18.2427 282.859 26.4573 279.899C31.0212 278.255 34.444 277.167 36.0411 275.574" stroke="black" stroke-width="3" stroke-linecap="round"/>
<path d="M22.8053 281.948C18.2415 284.073 12.3087 285.499 11.396 281.493C10.255 276.484 18.4697 277.395 21.6643 274.891" stroke="black" stroke-width="3" stroke-linecap="round"/>
<path d="M10.7115 281.72C2.95324 283.997 -0.647302 277.142 6.14785 273.752C12.5371 270.565 18.0135 271.703 22.1209 266.923" stroke="black" stroke-width="3" stroke-linecap="round"/>
<path d="M3.86627 275.345C2.11684 273.828 0.0327325 269.927 5.69176 266.467C12.7655 262.141 45.8526 247.571 41.7452 235.961C40.5373 232.546 33.9869 232.774 28.5104 225.717C24.4427 220.475 28.5104 214.334 33.5305 217.749C34.8236 218.736 42.7949 223.896 46.9935 222.074C52.2133 219.81 69.396 217.771 81.7049 233.203C81.8346 233.366 82.0058 233.487 82.2056 233.545C92.3907 236.502 114.73 240.774 125.033 234.823" stroke="black" stroke-width="3" stroke-linecap="round"/>
<path d="M47.4492 243.246C50.2635 245.902 58.174 246.889 63.1941 242.108" stroke="black" stroke-width="3" stroke-linecap="round"/>
<path d="M469.558 256.93C467.656 259.51 461.571 264.534 452.444 263.987" stroke="black" stroke-width="3" stroke-linecap="round"/>
<path d="M355.008 268.313C363.991 273.209 390.207 277.85 423.616 257.622C424.047 257.361 424.611 257.451 424.936 257.835C431.421 265.487 449.749 281.167 473.664 283.111C480.738 283.686 485.758 280.151 477.544 277.192C472.98 275.547 469.557 274.46 467.96 272.866" stroke="black" stroke-width="3" stroke-linecap="round"/>
<path d="M481.195 279.24C485.758 281.365 491.691 282.792 492.604 278.785C493.745 273.776 485.53 274.687 482.336 272.183" stroke="black" stroke-width="3" stroke-linecap="round"/>
<path d="M493.288 279.013C501.046 281.289 504.646 274.435 497.851 271.045C491.462 267.858 485.986 268.996 481.878 264.215" stroke="black" stroke-width="3" stroke-linecap="round"/>
<path d="M500.134 272.638C501.883 271.12 503.967 267.22 498.308 263.759C491.234 259.434 458.147 244.864 462.255 233.253C463.463 229.839 470.013 230.067 475.49 223.009C479.557 217.767 475.49 211.626 470.469 215.041C469.176 216.028 461.205 221.188 457.006 219.367C451.787 217.103 434.604 215.064 422.295 230.495C422.165 230.658 421.994 230.779 421.794 230.837C411.609 233.795 389.27 238.067 378.967 232.116" stroke="black" stroke-width="3" stroke-linecap="round"/>
<path d="M456.55 240.539C453.736 243.195 445.825 244.182 440.805 239.401" stroke="black" stroke-width="3" stroke-linecap="round"/>
<path d="M227.586 77.8729C229.309 97.4707 238.125 132.034 259.532 133.374C282.082 134.785 291.478 89.1612 291.478 77.4026" stroke="black" stroke-width="3" stroke-linecap="round"/>
<path d="M231.693 76.9475L225.304 76.0369" stroke="black" stroke-width="3" stroke-linecap="round"/>
<path d="M293.899 76.0369C300.82 77.7731 306.262 85.3179 289.652 99.713" stroke="black" stroke-width="3" stroke-linecap="round"/>
<path d="M224.59 76.0369C218.558 76.8261 212.209 85.9808 230.781 99.713" stroke="black" stroke-width="3" stroke-linecap="round"/>
<ellipse cx="243.559" cy="79.907" rx="4.10736" ry="3.87014" fill="black"/>
<ellipse cx="274.82" cy="79.907" rx="3.87917" ry="3.87014" fill="black"/>
<path d="M256.663 79.6791C256.663 86.6427 251.004 92.2937 244.016 92.2937C237.027 92.2937 231.368 86.6427 231.368 79.6791C231.368 72.7155 237.027 67.0645 244.016 67.0645C251.004 67.0645 256.663 72.7155 256.663 79.6791Z" stroke="black" stroke-width="3"/>
<path d="M286.783 79.6791C286.783 86.6657 281.203 92.2937 274.364 92.2937C267.524 92.2937 261.944 86.6657 261.944 79.6791C261.944 72.6924 267.524 67.0645 274.364 67.0645C281.203 67.0645 286.783 72.6924 286.783 79.6791Z" stroke="black" stroke-width="3"/>
<path d="M256.338 78.3132H261.814" stroke="black" stroke-width="3" stroke-linecap="round"/>
<path d="M254.123 86.9644C252.936 93.5283 252.804 104.426 264.553 98.4252" stroke="black" stroke-width="3" stroke-linecap="round"/>
<path d="M251.317 112.462C253.827 111.087 260.354 109.163 266.378 112.462" stroke="black" stroke-width="3" stroke-linecap="round"/>
<path d="M286.001 76.0369H293.759" stroke="black" stroke-width="3" stroke-linecap="round"/>
<path d="M223.765 38.03C199.819 49.2794 210.981 68.9658 219.556 77.4028C221.052 76.2779 225.792 75.9966 227.974 75.9966C223.858 45.9983 239.355 38.0298 246.214 36.1549C265.39 32.8738 287.371 38.03 291.113 53.0292C295.583 70.9471 295.723 76.9341 299.197 77.4028C312.4 66.9034 310.453 46.7795 307.829 38.03C311.253 28.2568 303.607 19.4373 299.197 14.1251C294.788 8.81293 282.694 -0.874279 261.18 0.0634227C218.62 4.28194 221.426 30.5305 223.765 38.03Z" fill="black"/>
<path d="M235.8 61.0115C237.739 60.6679 243.558 60.1869 251.316 61.0115" stroke="black" stroke-width="3" stroke-linecap="round"/>
<path d="M267.747 61.9221C269.573 61.2349 275.049 60.2729 282.351 61.9221" stroke="black" stroke-width="3" stroke-linecap="round"/>
<path d="M238.442 131.24C193.261 128.053 182.126 121.633 149.449 199.765" stroke="black" stroke-width="3" stroke-linecap="round"/>
<path d="M282.216 129.596C321.008 136.425 339.719 112.749 365.276 190.835" stroke="black" stroke-width="3" stroke-linecap="round"/>
<path d="M176.603 249.165C171.958 271.306 157.492 273.484 149.665 271.63C148.994 271.471 148.763 270.656 149.164 270.095C165.27 247.552 139.76 230.925 126.01 234.738C125.467 234.888 124.877 234.606 124.76 234.055C122.924 225.377 137.316 223.667 138.724 211.375C139.455 205 140.322 201.739 143.972 201.585C160.174 200.902 182.764 219.798 176.603 249.165Z" stroke="black" stroke-width="3" stroke-linecap="round"/>
<path d="M368.47 193.794C372.258 211.355 384.313 220.016 380.206 231.647C380.035 232.131 379.485 232.375 378.99 232.237C351.328 224.563 344.689 255.333 354.991 266.63C355.622 267.322 355.223 268.538 354.289 268.465C335.347 266.983 321.218 235.552 325.571 223.389C338.121 188.331 367.145 187.647 368.47 193.794Z" stroke="black" stroke-width="3" stroke-linecap="round"/>
<path d="M331.276 251.846C331.124 281.973 331.687 313.359 336.068 338.128" stroke="black" stroke-width="3" stroke-linecap="round"/>
<path d="M177.516 246.434C177.82 276.181 176.923 310.314 171.812 340" stroke="black" stroke-width="3" stroke-linecap="round"/>
<path d="M278.071 140.705C280.102 135.019 278.245 131.192 276.443 130.463C265.584 140.087 249.115 136.514 243.014 130.682C240.84 132.606 242.105 138.3 243.014 140.049C254.773 152.647 271.511 145.59 278.071 140.705Z" fill="black"/>
</svg>
