<svg width="200" height="200" viewBox="0 0 200 200" fill="none" xmlns="http://www.w3.org/2000/svg">
<g clip-path="url(#clip0_353_22722)">
<path d="M8.2268 107.822C9.29105 107.822 10.1538 106.959 10.1538 105.894C10.1538 104.829 9.29105 103.966 8.2268 103.966C7.16255 103.966 6.2998 104.829 6.2998 105.894C6.2998 106.959 7.16255 107.822 8.2268 107.822Z" stroke="black" stroke-width="1.42857"/>
<path d="M12.003 106.09C15.8899 105.69 21.9887 106.163 22.7095 109.172C23.4304 112.18 20.6777 113.28 19.2114 113.455C13.6285 114.342 6.22583 113.925 6.22583 109.172" stroke="black" stroke-width="1.42857" stroke-linecap="round"/>
<path d="M10.5985 110.64C10.8441 110.64 11.0432 110.441 11.0432 110.195C11.0432 109.949 10.8441 109.75 10.5985 109.75C10.3529 109.75 10.1538 109.949 10.1538 110.195C10.1538 110.441 10.3529 110.64 10.5985 110.64Z" stroke="black" stroke-width="1.42857"/>
<path d="M14.8974 110.195C14.8974 110.411 14.6962 110.64 14.3787 110.64C14.0611 110.64 13.8599 110.411 13.8599 110.195C13.8599 109.979 14.0611 109.75 14.3787 109.75C14.6962 109.75 14.8974 109.979 14.8974 110.195Z" stroke="black" stroke-width="1.42857"/>
<path d="M18.1581 110.64C18.4037 110.64 18.6028 110.441 18.6028 110.195C18.6028 109.949 18.4037 109.75 18.1581 109.75C17.9126 109.75 17.7134 109.949 17.7134 110.195C17.7134 110.441 17.9126 110.64 18.1581 110.64Z" stroke="black" stroke-width="1.42857"/>
<path d="M154.457 53.5363C155.439 53.5363 156.235 52.7393 156.235 51.7564C156.235 50.7735 155.439 49.9766 154.457 49.9766C153.474 49.9766 152.678 50.7735 152.678 51.7564C152.678 52.7393 153.474 53.5363 154.457 53.5363Z" stroke="black" stroke-width="1.42857"/>
<path d="M157.951 50.199C159.254 50.199 162.979 50.199 164.731 50.199C166.15 50.199 166.833 50.5131 166.833 52.7118C166.833 54.8481 166.815 57.6154 166.833 58.7322C166.845 59.5174 166.455 60.3864 165.151 60.5121C163.848 60.6377 158.617 60.5644 156.164 60.5121C155.252 60.5121 153.641 59.9953 153.641 57.8945V55.5387" stroke="black" stroke-width="1.42857" stroke-linecap="round"/>
<path d="M157.05 53.9072L160.311 56.1321" stroke="black" stroke-width="1.42857" stroke-linecap="round"/>
<path d="M160.311 56.1319L166.24 50.644" stroke="black" stroke-width="1.42857" stroke-linecap="round"/>
<path d="M161.814 54.797L163.435 56.4285L165.055 58.0601" stroke="black" stroke-width="1.42857" stroke-linecap="round"/>
<path d="M155.865 58.0601L158.255 54.797" stroke="black" stroke-width="1.42857" stroke-linecap="round"/>
<path d="M167.492 164.775C167 165.268 166.574 165.694 166.282 165.987C165.519 166.751 164.718 166.305 164.413 165.987L159.548 161.296C158.829 160.628 158.221 159.968 155.507 157.376C155.229 157.098 154.788 156.387 155.251 155.77C155.712 155.153 158.307 151.914 159.548 150.372C159.923 149.826 160.741 149.178 161.783 150.148C162.682 150.983 165.76 153.875 168.39 156.074" stroke="black" stroke-width="1.42857" stroke-linecap="round"/>
<path d="M159.496 150.539C159.649 153.352 160.68 157.882 166.018 159.586" stroke="black" stroke-width="1.42857" stroke-linecap="round"/>
<path d="M173.031 159.804C172.973 160.331 172.936 160.883 172.945 161.353L173.031 159.804ZM173.187 158.938C173.132 159.263 173.076 159.4 173.031 159.804L173.187 158.938ZM175.357 162.981C175.149 163.612 173.796 164.96 171.298 164.925C168.799 164.891 168.034 162.686 167.954 161.659C167.882 160.721 168.245 158.912 169.574 157.782C170.913 156.644 172.615 156.612 174.124 157.782C175.375 158.751 175.373 160.234 175.151 161.008C175.018 161.469 174.516 161.92 173.589 162.471C173.126 162.745 172.963 162.177 172.945 161.353L175.357 162.981ZM173.031 159.804C172.787 159.182 170.909 158.457 170.199 159.804C169.466 161.193 170.027 162.363 170.502 162.593C171.11 162.885 172.003 163.039 172.945 161.353L173.031 159.804Z" stroke="black" stroke-width="1.42857" stroke-linecap="round"/>
<path d="M41.5043 141.279C40.9714 139.22 39.2019 135.424 36.3879 136.707C33.5737 137.99 35.2152 140.29 36.3879 141.279C37.1769 141.814 38.8732 142.386 39.3458 140.396C39.8183 138.407 37.8269 137.589 37.2672 138.472C36.972 138.819 36.6387 139.691 37.6669 140.396" stroke="black" stroke-width="1.42857" stroke-linecap="round"/>
<path d="M53.9223 40.0029C53.9143 39.9791 53.9171 39.9651 53.9201 39.9564C53.9242 39.9449 53.9333 39.9311 53.9487 39.9199C53.9641 39.9086 53.9798 39.904 53.992 39.9036C54.0013 39.9031 54.0154 39.9047 54.0358 39.9194L57.0593 42.091C57.3461 42.2972 57.733 42.2949 58.0176 42.0855L61.016 39.8794C61.0363 39.8645 61.0503 39.8628 61.0596 39.8631C61.0717 39.8634 61.0876 39.8678 61.1032 39.8789C61.1186 39.8901 61.1279 39.9037 61.1321 39.9151C61.1353 39.9239 61.1382 39.9377 61.1304 39.9617L60.0008 43.51C59.8935 43.8467 60.0152 44.2142 60.3021 44.4202L60.5183 44.119L60.3021 44.4202L63.3254 46.592C63.3459 46.6067 63.352 46.6194 63.3546 46.6283C63.3581 46.64 63.3586 46.6565 63.3529 46.6747C63.3471 46.6928 63.337 46.7059 63.3275 46.7134C63.3201 46.7192 63.308 46.7262 63.2828 46.7264L59.561 46.7477C59.2079 46.7496 58.8962 46.9791 58.7889 47.3158L57.6592 50.8641C57.6515 50.8881 57.6411 50.8977 57.6335 50.9029C57.6235 50.9099 57.608 50.9155 57.5889 50.9157C57.5698 50.9158 57.5544 50.9102 57.5443 50.9035C57.5366 50.8983 57.5261 50.8887 57.5182 50.8648L56.3478 47.3297C56.2368 46.9942 55.9225 46.7685 55.5693 46.7706L51.8477 46.7919C51.8225 46.7921 51.81 46.7851 51.8027 46.7795C51.793 46.772 51.7829 46.7591 51.7768 46.741C51.7709 46.7229 51.7713 46.7065 51.7746 46.6948C51.7773 46.6857 51.783 46.6728 51.8033 46.658L54.8016 44.4518C55.0862 44.2424 55.2036 43.8735 55.0926 43.538L53.9223 40.0029Z" stroke="black" stroke-width="1.42857"/>
<path d="M99.833 107.809V120.417" stroke="black" stroke-width="1.42857" stroke-linecap="round"/>
<path d="M109.32 109.293V121.307" stroke="black" stroke-width="1.42857" stroke-linecap="round"/>
<path d="M87.1312 163.888C83.9986 164.278 76.6652 165.717 75.0588 168.644C74.5769 169.523 74.018 171.66 75.6371 173.182C77.2565 174.703 80.2155 174.304 81.4925 173.913L88.9384 170.913" stroke="black" stroke-width="1.42857" stroke-linecap="round"/>
<path d="M129.82 141.799C123.975 141.987 98.1592 154.493 85.9817 160.723C84.9449 167.587 89.3208 172.516 91.6383 174.122C103.777 170.596 128.689 163.449 131.234 163.073C133.78 162.697 136.302 160.879 137.244 160.017C143.844 152.307 138.973 145.756 135.712 143.445C133.391 141.799 131.388 141.748 129.82 141.799Z" fill="black"/>
<path d="M75.0684 140.05C79.2098 140.326 97.2761 147.332 105.836 151.004L86.2595 160.793C77.4982 163.364 72.1161 162.517 70.4723 161.963C60.9845 157.389 64.7019 146.105 68.4715 141.925C70.901 139.856 73.5844 139.951 75.0684 140.05Z" fill="black"/>
<path d="M121.161 165.223C123.75 166.467 125.149 168.098 125.859 169.435C127.379 172.918 124.649 175.01 121.531 174.027C119.809 173.483 119.403 173.118 118.49 172.361C118.027 171.977 115.865 169.966 113.396 167.592" stroke="black" stroke-width="1.42857" stroke-linecap="round"/>
<path d="M71.4579 105.793L73.4452 141.931C73.4885 142.717 74.1382 143.332 74.9253 143.332H130.369C131.187 143.332 131.851 142.668 131.851 141.849V104.937C131.851 104.11 131.175 103.443 130.349 103.454L72.9179 104.229C72.0752 104.24 71.4115 104.951 71.4579 105.793Z" fill="black"/>
<path d="M130.443 143.852H74.56C73.7823 143.852 73.1519 144.482 73.1519 145.261C73.1519 146.039 73.7823 146.67 74.56 146.67H130.443C131.221 146.67 131.851 146.039 131.851 145.261C131.851 144.482 131.221 143.852 130.443 143.852Z" fill="black"/>
<path d="M109.468 87.7861C114.631 87.7119 125.996 91.6424 130.517 104.027" stroke="black" stroke-width="1.42857" stroke-linecap="round"/>
<path d="M98.1284 87.7118C86.3441 90.0108 80.7113 95.0537 76.2644 104.769" stroke="black" stroke-width="1.42857" stroke-linecap="round"/>
<path d="M137.558 99.4419L140.448 94.6215" stroke="black" stroke-width="1.42857" stroke-linecap="round"/>
<path d="M140.448 100.777L144.376 97.5137" stroke="black" stroke-width="1.42857" stroke-linecap="round"/>
<path d="M141.041 103.002C141.807 103.298 143.546 103.58 144.376 102.334" stroke="black" stroke-width="1.42857" stroke-linecap="round"/>
<path d="M65.2211 98.5394L60.7742 93.9414" stroke="black" stroke-width="1.42857" stroke-linecap="round"/>
<path d="M69.7426 97.7977L67.0745 90.9008" stroke="black" stroke-width="1.42857" stroke-linecap="round"/>
<path d="M64.1094 101.135L60.7742 99.8743" stroke="black" stroke-width="1.42857" stroke-linecap="round"/>
<path d="M133.482 112.346C136.224 116.647 139.337 121.764 133.482 131.393" stroke="black" stroke-width="1.42857" stroke-linecap="round"/>
<path d="M109.543 88.1568C110.21 86.2286 109.602 84.9311 109.009 84.6838C105.451 87.9469 100.056 86.7356 98.0547 84.758C97.3432 85.4106 97.7583 87.341 98.0547 87.9343C101.909 92.206 107.393 89.8129 109.543 88.1568Z" fill="black"/>
<path d="M93.7556 100.023L94.9459 98.1945C96.106 96.4127 98.3638 95.7013 100.335 96.4966L103.172 97.6411C104.941 98.3552 106.969 97.8598 108.211 96.4102L111.469 92.6064" stroke="black" stroke-width="1.42857" stroke-linecap="round"/>
<path d="M70.5576 115.077C69.4459 117.698 68.1266 124.051 71.7434 128.5" stroke="black" stroke-width="1.42857" stroke-linecap="round"/>
<path d="M119.762 57.8408C118.131 63.6995 117.316 64.2186 114.944 66.8143C114.944 64.2491 114.504 59.9433 114.504 58.1504C106.738 58.1504 100.185 54.9784 97.8784 53.3924C97.9611 58.7709 92.9217 62.2878 92.9217 62.2878C92.9217 62.2878 93.6445 64.46 94.0576 69.3215C94.388 73.2106 93.438 72.4591 92.9217 71.5971C91.4347 66.7977 88.9975 68.0802 87.9647 69.3215C75.293 48.719 94.7804 44.7381 98.4978 45.1173C101.307 42.7177 105.224 40.8371 107.978 40.5614C117.909 39.5665 122.406 48.3411 119.762 57.8408Z" fill="black"/>
<path d="M93.0952 75.264C94.4293 83.4136 103.384 89.2737 109.845 82.672C116.307 76.0702 115.014 63.9862 114.323 58.3473" stroke="black" stroke-width="1.42857" stroke-linecap="round"/>
<path d="M87.8181 68.8165C87.0028 70.8189 87.7677 75.2558 93.0951 75.2558" stroke="black" stroke-width="1.42857" stroke-linecap="round"/>
<path d="M90.1679 69.9163C90.05 70.3446 90.1443 71.3599 91.4647 71.9928" stroke="black" stroke-width="1.42857" stroke-linecap="round"/>
<path d="M114.144 74.2176C115.883 73.4922 117.108 70.8062 116.637 66.5049" stroke="black" stroke-width="1.42857" stroke-linecap="round"/>
<path d="M104.361 79.1122C106.065 79.5572 105.957 78.3326 107.251 77.2582" stroke="black" stroke-width="1.42857" stroke-linecap="round"/>
<path d="M109.449 69.8644C110.063 69.8644 110.561 69.3663 110.561 68.7519C110.561 68.1376 110.063 67.6395 109.449 67.6395C108.835 67.6395 108.337 68.1376 108.337 68.7519C108.337 69.3663 108.835 69.8644 109.449 69.8644Z" fill="black"/>
<path d="M99.6664 70.0127C100.28 70.0127 100.778 69.5146 100.778 68.9003C100.778 68.2859 100.28 67.7878 99.6664 67.7878C99.0524 67.7878 98.5547 68.2859 98.5547 68.9003C98.5547 69.5146 99.0524 70.0127 99.6664 70.0127Z" fill="black"/>
<path d="M97.2456 66.3566C97.4795 65.6673 98.489 64.3922 100.655 64.8057" stroke="black" stroke-width="1.42857" stroke-linecap="round"/>
<path d="M107.622 65.0218C108.138 64.574 109.543 63.9472 111.031 65.0218" stroke="black" stroke-width="1.42857" stroke-linecap="round"/>
<path d="M104.036 68.1364C103.863 69.6009 103.746 72.5707 104.657 72.7343" stroke="black" stroke-width="1.42857" stroke-linecap="round"/>
<path d="M146.748 135.41C166.537 140.898 202.082 147.201 185.955 128.513C180.866 123.495 173.355 117.611 161.275 112.42" stroke="black" stroke-width="1.42857" stroke-linecap="round"/>
<path d="M168.168 97.067C180.471 89.1811 200.289 72.8905 181.138 70.814C161.987 68.7375 144.5 75.9311 138.151 79.7875" stroke="black" stroke-width="1.42857" stroke-linecap="round"/>
<path d="M120.511 85.5431C128.664 67.967 141.857 31.5392 129.405 26.437C113.841 20.0591 93.6816 38.451 77.228 82.3542" stroke="black" stroke-width="1.42857" stroke-linecap="round"/>
<path d="M59.0964 70.4025C40.8641 60.4155 3.64335 45.0543 0.619448 63.5055C-2.40445 81.9567 34.5395 97.3476 53.3896 102.737" stroke="black" stroke-width="1.42857" stroke-linecap="round"/>
<path d="M58.2296 112.42C31.6222 125.991 -1.71639 144.761 16.7502 154.543C24.3098 158.548 43.6539 156.101 52.5478 152.467" stroke="black" stroke-width="1.42857" stroke-linecap="round"/>
</g>
<defs>
<clipPath id="clip0_353_22722">
<rect width="200" height="200" fill="white"/>
</clipPath>
</defs>
</svg>
