<svg width="56" height="56" viewBox="0 0 56 56" fill="none" xmlns="http://www.w3.org/2000/svg">
<rect x="0.5" y="0.5" width="55" height="55" rx="10" fill="#F1F5F9"/>
<g clip-path="url(#clip0_395_29974)">
<path d="M15.5062 9.60391C15.3801 9.66328 15.1797 9.83398 15.0609 9.98985L14.8457 10.2645L14.8234 16.1945L14.8086 22.1172H11.9512C9.06406 22.1172 8.79688 22.1395 8.60391 22.3992C8.52227 22.5031 8.50742 24.8559 8.5 34.8531V47.1809L8.6707 47.3367L8.84141 47.5H24.3234H39.798L40.0504 47.3293C40.1914 47.2402 40.377 47.025 40.466 46.8691C40.5551 46.7059 41.9504 42.8688 43.5609 38.3414C46.7598 29.3906 46.693 29.6207 46.3293 29.0863C46.2402 28.9527 46.0473 28.7598 45.9137 28.6707C45.6688 28.5 45.6242 28.5 43.5609 28.5H41.4531V25.8355C41.4531 24.1359 41.4234 23.0895 41.3715 22.9559C41.2602 22.6441 40.8668 22.273 40.5625 22.1914C40.4215 22.1543 39.991 22.1172 39.6199 22.1172H38.9297V19.4602C38.9297 16.8254 38.9297 16.7957 38.759 16.4766C38.6402 16.2539 38.4844 16.098 38.2617 15.9793C37.9723 15.8234 37.8461 15.8086 36.8367 15.8086H35.7383V14.6879C35.7383 13.6637 35.7234 13.5375 35.575 13.2703C35.2707 12.7359 35.048 12.6543 33.7566 12.632L32.6359 12.6023L32.6062 11.4742C32.584 10.4129 32.5691 10.3238 32.3984 10.0715C32.302 9.92305 32.0941 9.7375 31.9457 9.65586C31.6785 9.5 31.6043 9.5 23.7074 9.5C17.1613 9.50742 15.6918 9.52227 15.5062 9.60391ZM31.2852 11.7266V12.6172L25.073 12.632L18.8535 12.6543L18.5715 12.8324C18.4156 12.9215 18.2301 13.1293 18.1484 13.2926C18 13.5672 18 13.7602 18 21.041V28.5H17.0723H16.1445V19.668V10.8359H23.7148H31.2852V11.7266ZM34.4023 14.8809V15.8086H28.2645C21.377 15.8086 21.8445 15.7715 21.3844 16.3504L21.1543 16.6398L21.132 22.5699L21.1172 28.5H20.2266H19.3359V21.2266V13.9531H26.8691H34.4023V14.8809ZM37.5938 22.8223V28.5H35.6492H33.7047L34.0758 28.1066C34.8848 27.268 35.3227 26.4887 35.5973 25.3828C35.8273 24.4699 35.7754 23.1637 35.4637 22.2508C34.6102 19.7645 32.2723 18.191 29.6895 18.3617C26.743 18.5547 24.509 20.8035 24.3383 23.75C24.2344 25.4348 24.7836 26.8672 26.0082 28.1438L26.3422 28.5H24.3977H22.4531V22.8223V17.1445H30.0234H37.5938V22.8223ZM30.9289 19.7793C33.3188 20.284 34.8477 22.6887 34.291 25.0637C34.1277 25.7465 33.6602 26.6445 33.2965 26.9711C33.1406 27.1121 33.1406 27.1121 33.1406 26.9637C33.1406 26.5555 32.6359 25.7391 32.1758 25.3977C31.9086 25.2047 31.8937 25.1676 31.9977 25.0785C32.1832 24.9227 32.4727 24.2918 32.5543 23.8613C32.7027 23.0523 32.3762 22.0875 31.7824 21.5457C31.2703 21.093 30.7508 20.8926 30.0234 20.8926C29.2516 20.8926 28.7172 21.1152 28.2273 21.6199C27.7301 22.1246 27.5445 22.5625 27.5148 23.2824C27.4777 23.9801 27.6039 24.4551 27.9453 24.9227L28.1605 25.2195L27.9824 25.3383C27.5223 25.6426 27.0621 26.318 26.9434 26.8672L26.884 27.1195L26.6391 26.8301C26.2754 26.3996 25.882 25.5535 25.7484 24.9301C25.3477 23.0449 26.3273 21.0336 28.0641 20.1727C29.0437 19.6902 29.9121 19.5715 30.9289 19.7793ZM30.5133 22.3324C31.4559 22.7629 31.5004 23.9801 30.5949 24.4996C30.2461 24.6926 29.6746 24.6703 29.3703 24.4402C28.977 24.1508 28.8211 23.8316 28.8508 23.3715C28.8879 22.8668 29.1105 22.5254 29.5336 22.3324C29.9195 22.1617 30.1273 22.1617 30.5133 22.3324ZM14.8086 26.0137C14.8086 27.4238 14.7863 28.5742 14.7566 28.5742C14.7195 28.5742 14.1332 28.6707 13.4355 28.7895C12.7453 28.9082 12.1516 28.9824 12.1219 28.9602C12.0699 28.9082 10.1328 23.6016 10.1328 23.5125C10.1328 23.4754 11.1867 23.4531 12.4707 23.4531H14.8086V26.0137ZM40.1172 25.9766V28.5H39.5234H38.9297V25.9766V23.4531H39.5234H40.1172V25.9766ZM30.8324 26.1695C31.5227 26.459 31.8789 26.9637 31.8789 27.6391V28.0473L31.4559 28.2105C30.6469 28.5148 29.2961 28.4852 28.4352 28.1438L28.1531 28.0324L28.1902 27.602C28.2125 27.357 28.3016 27.0453 28.3906 26.8746C28.5836 26.5406 29.0512 26.177 29.4371 26.0582C29.7488 25.9617 30.4836 26.0211 30.8324 26.1695ZM10.9715 29.7395C11.1199 30.0215 11.5281 30.2812 11.8992 30.3332C12.0477 30.348 12.6711 30.2812 13.2797 30.1773C13.8957 30.0734 14.4004 29.9992 14.4078 30.0066C14.4301 30.0289 10.0289 42.3938 9.91758 42.6387C9.87305 42.7277 9.84336 39.7367 9.84336 34.7715V26.7559L10.348 28.1289C10.6227 28.8859 10.9047 29.6059 10.9715 29.7395ZM44.9191 30.5188C44.7855 30.8973 43.4719 34.5711 42.0023 38.6828L39.3379 46.1641H24.7391C16.7012 46.1641 10.1328 46.1492 10.1328 46.127C10.1328 46.1047 15.1203 32.107 15.8625 30.0363L15.9367 29.8359H30.5504H45.1641L44.9191 30.5188Z" fill="black"/>
<path d="M22.1043 31.1719C21.5773 31.3797 21.0207 31.8992 20.7684 32.4188C20.5828 32.7898 20.5605 32.9234 20.5605 33.5469C20.5605 34.148 20.5902 34.3113 20.7535 34.6602C20.8574 34.8828 21.0801 35.202 21.2508 35.3652C21.5477 35.6547 22.1117 35.9961 22.275 35.9961C22.3344 35.9961 22.3715 36.293 22.3937 36.9016C22.416 37.6066 22.4605 37.8887 22.5793 38.1484C22.7648 38.5715 23.1359 38.9426 23.5664 39.143C23.893 39.2988 23.9895 39.2988 28.7617 39.2988H33.623L34.0535 39.0836C34.5508 38.8461 34.9367 38.3785 35.0629 37.8738C35.1074 37.7031 35.1445 37.2133 35.1445 36.7902V36.0109L35.3523 35.9664C35.7086 35.8773 36.3172 35.4023 36.577 35.0016C36.9184 34.482 37 34.2148 37 33.5766C37 32.8789 36.7996 32.3371 36.3617 31.8473C35.8867 31.3203 35.3598 31.0754 34.5953 31.0383C33.7418 30.9938 33.252 31.1867 32.6582 31.7953C32.109 32.3594 31.916 32.827 31.9234 33.584C31.9383 34.6008 32.5098 35.4914 33.4004 35.8848L33.8086 36.0703V36.7383C33.8086 37.525 33.7047 37.7922 33.3559 37.9184C33.0367 38.0297 24.6129 38.0297 24.2121 37.9184C23.8262 37.8145 23.7148 37.5324 23.7148 36.7086V36.0777L24.1898 35.8551C24.7391 35.5879 25.1398 35.1797 25.407 34.5934C25.5703 34.2445 25.6074 34.0738 25.6 33.5469C25.6 33.0125 25.5703 32.8492 25.3996 32.5078C25.1102 31.9141 24.8207 31.6023 24.2938 31.3203C23.8781 31.0977 23.752 31.068 23.1582 31.0457C22.6238 31.0234 22.416 31.0531 22.1043 31.1719ZM23.6184 32.4855C23.9078 32.6191 24.2047 33.0273 24.2789 33.3836C24.3383 33.6805 24.1527 34.2 23.9004 34.4375L23.7148 34.6082V34.2594C23.7148 33.7992 23.4848 33.5469 23.0617 33.5469C22.698 33.5469 22.4531 33.7844 22.4012 34.2C22.3492 34.5637 22.2453 34.5488 22.0078 34.1332C21.8742 33.8957 21.852 33.7547 21.8742 33.4578C21.9633 32.5969 22.8316 32.107 23.6184 32.4855ZM35.0777 32.5301C35.6418 32.9086 35.8199 33.5469 35.5156 34.1332C35.3078 34.5488 35.1742 34.5711 35.1223 34.2C35.0703 33.7918 34.8254 33.5469 34.4766 33.5469C34.0906 33.5469 33.8086 33.8363 33.8086 34.2223C33.8086 34.3855 33.7789 34.5117 33.7344 34.5117C33.6973 34.5117 33.5711 34.3781 33.4672 34.2148C33.0664 33.6063 33.2965 32.8344 33.9941 32.4484C34.2539 32.3 34.8031 32.3445 35.0777 32.5301Z" fill="black"/>
</g>
<defs>
<clipPath id="clip0_395_29974">
<rect width="38" height="38" fill="white" transform="translate(8.5 9.5)"/>
</clipPath>
</defs>
</svg>
