<svg width="126" height="126" viewBox="0 0 126 126" fill="none" xmlns="http://www.w3.org/2000/svg">
<rect width="126" height="126" rx="10" fill="#F1F5F9"/>
<path d="M105.747 29.5154C105.747 29.2825 105.656 29.0587 105.491 28.894C105.327 28.7297 105.104 28.6375 104.872 28.6375C104.872 28.6375 104.871 28.6375 104.869 28.6375L70.9713 28.7377C70.7331 28.7386 70.5057 28.8363 70.3414 29.0088C70.1771 29.1817 70.0905 29.4135 70.101 29.6517C70.176 31.3031 70.2272 32.962 70.2672 34.6114L49.7815 34.6284C48.9655 26.5718 40.6299 24.0333 36.8825 28.8096C32.7211 23.8964 24.3897 24.5694 21.3093 30.6477C20.1164 33.002 19.8633 35.9423 20.5355 39.6371C21.5134 45.0097 24.3551 50.1575 28.7075 54.612C28.5788 66.1694 28.4352 77.5112 28.3109 88.6804C28.2708 92.2417 28.4406 95.9135 30.9388 98.242C33.0182 100.175 35.9982 100.447 38.9643 100.447C39.226 100.447 39.4876 100.445 39.7479 100.442C50.3266 100.286 61.0344 99.9347 71.7392 99.4267C71.7759 99.4313 71.812 99.44 71.8491 99.44C71.9112 99.44 71.9729 99.4266 72.0344 99.4133C77.3627 99.1588 82.69 98.8775 88.0003 98.5378C90.1532 98.3966 93.1015 98.2036 95.3137 96.4816C98.4038 94.0936 98.9262 90.0154 99.0298 85.9639V85.9647C99.3588 73.7502 99.2426 61.4389 98.7006 49.3482C100.689 49.417 102.751 49.5004 104.914 49.6011C105.15 49.6042 105.384 49.5256 105.557 49.3613C105.73 49.1965 105.827 48.9691 105.828 48.7304C105.847 42.3829 105.719 35.8443 105.747 29.5154ZM22.8689 31.4382C25.5969 26.0549 33.348 25.9716 36.1984 30.8565C36.367 31.1451 36.685 31.3141 37.0188 31.2875C37.3525 31.2628 37.6423 31.0493 37.7657 30.7386C39.958 25.2198 51.2012 28.5402 47.2924 40.3936C45.1031 47.0507 39.7933 52.7621 35.014 57.7276C28.8031 53.26 23.6327 46.8884 22.2556 39.3238C21.6541 36.0187 21.8549 33.439 22.8689 31.4382ZM39.7242 98.6935C36.7413 98.7303 33.9201 98.6265 32.1297 96.9625C30.154 95.1203 30.0234 91.8707 30.0593 88.6999C30.0822 86.6498 30.1072 84.6006 30.1309 82.5509C35.1313 75.4547 40.4623 68.4723 45.9935 61.7801C54.3207 74.3041 61.7785 85.0113 70.2499 97.7445C60.0333 98.2148 49.8193 98.5449 39.7242 98.6935ZM94.2425 95.1004C92.5865 96.3893 90.3838 96.6295 87.8874 96.793C82.6995 97.125 77.4952 97.4012 72.2895 97.6515C68.2952 91.6367 64.4297 85.9363 60.6762 80.412L72.3679 66.8015C79.9267 75.1048 87.7087 84.496 96.4058 91.933C95.955 93.1936 95.2839 94.2954 94.2425 95.1004ZM96.9561 49.2941C97.5014 61.3847 97.6111 73.7013 97.2826 85.9177V85.9185C97.2463 87.331 97.1531 88.7392 96.91 90.0515C88.2978 82.5527 80.5374 73.1295 72.9923 64.8932C72.8237 64.7088 72.5791 64.6016 72.3337 64.6093C72.0841 64.6135 71.8476 64.7242 71.685 64.9137L59.6584 78.9139C55.5165 72.8196 51.234 66.5185 46.7999 59.834C46.6471 59.6039 46.3944 59.4592 46.1188 59.4443C45.8477 59.4327 45.5763 59.5459 45.3996 59.758C40.104 66.1199 34.9983 72.7575 30.1663 79.5073C30.404 59.2478 30.3929 60.2201 30.4374 56.2799C31.7533 57.4668 33.4372 58.7739 34.6218 59.5966C34.9472 59.8231 35.459 59.7874 35.7499 59.4853C41.0104 54.0264 46.7267 47.9933 49.0273 40.7069C49.4703 39.3109 49.7624 37.9355 49.8284 36.4525C49.8296 36.4275 49.8344 36.4012 49.8354 36.3763L70.3023 36.3597C70.399 41.1466 70.4402 44.8931 70.6107 48.766C70.6209 49.002 70.7264 49.2236 70.9031 49.3806C70.9033 49.3808 70.9036 49.3808 70.9038 49.3811C70.9043 49.3816 70.9043 49.3819 70.9048 49.3824C71.082 49.54 71.3124 49.6154 71.5501 49.6015C73.315 49.4721 75.2547 49.3673 77.4562 49.2813C77.4596 51.3423 77.4749 53.4992 77.4917 55.7888C77.4975 56.567 78.4021 56.8932 78.9278 56.4549C81.8698 53.9976 84.8327 51.6964 87.6795 49.1224C90.7374 49.1339 93.9469 49.1973 96.9561 49.2941ZM87.3432 47.3712C87.3424 47.3712 87.3415 47.3712 87.3407 47.3712C87.1227 47.3712 86.9125 47.4527 86.7516 47.5995C84.3052 49.8318 81.8328 51.7945 79.228 53.9339C79.2152 52.0804 79.205 50.2248 79.205 48.374C79.205 48.017 79.0126 47.8554 78.9369 47.7446C78.8495 47.7016 78.6896 47.4982 78.3292 47.4982C78.3189 47.4982 78.3087 47.4982 78.2984 47.4987C76.0762 47.5773 74.1108 47.674 72.3223 47.7925C72.0947 41.8774 72.1251 36.3667 71.8866 30.4833L103.995 30.388C103.984 36.1962 104.086 42.0617 104.082 47.8123C97.2829 47.5067 91.7331 47.3841 87.3432 47.3712Z" fill="#94A3B8"/>
<path d="M78.2728 35.5058C75.6574 35.7711 74.5016 38.4066 75.3787 40.8771C75.9912 42.6026 77.5299 43.8168 79.1206 43.8296H79.1471C80.7638 43.8296 82.2866 42.5868 82.696 40.9286C83.3366 38.3362 81.3158 35.192 78.2728 35.5058ZM80.9988 40.5095C80.7841 41.3789 79.9552 42.0814 79.1464 42.0814C79.1426 42.0814 79.1384 42.0814 79.1345 42.0814C78.1643 42.0737 77.3394 41.1754 77.0262 40.2922C76.5347 38.9083 76.9765 37.3947 78.4492 37.2447C80.2172 37.0702 81.3623 39.0365 80.9988 40.5095Z" fill="#94A3B8"/>
<path d="M87.814 35.5057C85.2028 35.7705 84.0411 38.4014 84.9199 40.877C85.5324 42.6025 87.0711 43.8167 88.6618 43.8295H88.6883C90.305 43.8295 91.8278 42.5867 92.2372 40.9285C92.8778 38.3361 90.857 35.1917 87.814 35.5057ZM90.54 40.5094C90.3253 41.3788 89.4964 42.0813 88.6877 42.0813C88.6838 42.0813 88.6796 42.0813 88.6757 42.0813C87.7055 42.0736 86.8806 41.1753 86.5674 40.2921C86.0759 38.9082 86.5177 37.3946 87.9904 37.2446C89.7586 37.0701 90.9035 39.0364 90.54 40.5094Z" fill="#94A3B8"/>
<path d="M97.3559 35.5057C94.7404 35.7711 93.5846 38.4066 94.4617 40.877C95.0742 42.6026 96.6129 43.8168 98.2036 43.8296H98.2301C99.8468 43.8296 101.37 42.5868 101.779 40.9286C102.421 38.331 100.393 35.1923 97.3559 35.5057ZM100.082 40.5095C99.8672 41.3789 99.0382 42.0814 98.2295 42.0814C98.2256 42.0814 98.2214 42.0814 98.2175 42.0814C97.2473 42.0737 96.4224 41.1754 96.1092 40.2922C95.6177 38.9083 96.0595 37.3947 97.5322 37.2447C99.2878 37.0714 100.444 39.0398 100.082 40.5095Z" fill="#94A3B8"/>
<path d="M63.992 54.982C61.8807 53.5946 59.1006 53.1416 56.8063 54.2223C52.0494 56.4587 51.9688 63.861 56.8811 66.5771C59.3344 67.9334 62.5762 67.6583 64.7633 65.922C66.4864 64.5546 67.4611 62.4047 67.3071 60.3117C67.1547 58.2386 65.9156 56.2462 63.992 54.982ZM58.383 65.345L64.424 57.7085C64.781 58.1531 65.059 58.6404 65.2555 59.1445C63.6804 61.3726 62.0182 63.5646 60.2942 65.6821C59.6418 65.6811 58.9923 65.5755 58.383 65.345ZM55.2078 61.883L60.2 55.4016C60.785 55.4658 61.3747 55.6296 61.9499 55.874C60.1173 58.4687 58.0411 60.8876 55.7473 63.0852C55.5217 62.7057 55.3391 62.3041 55.2078 61.883ZM57.5499 55.8041C58.0305 55.5782 58.5552 55.4513 59.0983 55.3996L54.9827 60.743C54.8112 58.7766 55.6688 56.6888 57.5499 55.8041ZM56.2587 63.8075C58.6614 61.5172 60.8305 58.9883 62.7381 56.2722C62.8359 56.3298 62.936 56.3795 63.0319 56.4425C63.3149 56.6286 63.5733 56.842 63.817 57.0675L57.581 64.9506C57.0766 64.6481 56.6343 64.2579 56.2587 63.8075ZM63.6766 64.5527C63.0455 65.0538 62.2984 65.3906 61.5135 65.5621C62.9009 63.8326 64.2473 62.0597 65.5375 60.2588C65.5447 60.3191 65.559 60.3792 65.5634 60.4395C65.6741 61.9411 64.9332 63.5553 63.6766 64.5527Z" fill="#94A3B8"/>
<path d="M45.9713 66.3082C45.8949 66.1888 45.7656 66.114 45.6243 66.1071C45.4762 66.1029 45.3473 66.1631 45.2593 66.2741L32.6469 82.3705C32.4979 82.5609 32.5312 82.8353 32.7211 82.9843C32.9136 83.1348 33.1874 83.0977 33.3349 82.9101L45.5675 67.2984L49.2956 73.1247C49.4258 73.3274 49.6959 73.3867 49.8995 73.2574C50.1027 73.1272 50.162 72.8566 50.0322 72.6536L45.9713 66.3082Z" fill="#94A3B8"/>
<path d="M50.9747 73.9019C50.8406 73.7008 50.57 73.6465 50.3687 73.7806C50.1676 73.9146 50.1133 74.1856 50.2474 74.3866L50.4839 74.7409C50.6184 74.9414 50.8889 74.9953 51.0904 74.8616C51.291 74.7273 51.3452 74.4562 51.2112 74.2551L50.9747 73.9019Z" fill="#94A3B8"/>
<path d="M44.4634 71.1328L37.4373 80.8459C37.296 81.0414 37.34 81.3145 37.5354 81.4563C37.7294 81.5967 38.0028 81.5551 38.1458 81.3582L45.1719 71.6451C45.3131 71.4495 45.2691 71.1764 45.0738 71.0347C44.8774 70.8929 44.6047 70.9369 44.4634 71.1328Z" fill="#94A3B8"/>
<path d="M74.052 73.2817C73.8924 73.1003 73.6166 73.0832 73.4349 73.2416C73.2535 73.4011 73.2355 73.6773 73.3947 73.8587C76.8045 77.7421 80.4267 81.5219 84.1609 85.0921C84.3379 85.2611 84.6142 85.2505 84.7788 85.0785C84.9458 84.904 84.9392 84.6273 84.7652 84.4605C81.0491 80.9078 77.4446 77.1463 74.052 73.2817Z" fill="#94A3B8"/>
<path d="M25.7409 39.5791C24.982 37.1677 25.1891 34.8194 26.3089 33.136C27.4357 31.4415 29.9525 30.3494 31.9043 31.4207C32.1148 31.5372 32.3818 31.46 32.4976 31.2482C32.6141 31.0365 32.5369 30.771 32.3251 30.6549C29.9537 29.3515 26.9225 30.6344 25.5808 32.6519C24.3145 34.5558 24.0686 37.1765 24.9069 39.841C25.6414 42.1744 27.0251 44.1875 28.3632 46.1346C28.5009 46.3348 28.7739 46.3832 28.9709 46.2473C29.1698 46.1107 29.2202 45.8384 29.0836 45.6396C27.7818 43.7456 26.4357 41.7869 25.7409 39.5791Z" fill="#94A3B8"/>
<path d="M30.8066 32.6512C29.4032 32.3413 27.8036 33.1019 27.0012 34.4592C26.3248 35.6031 26.1775 37.1237 26.5974 38.6307C26.9901 40.0405 27.7835 41.2492 28.5077 42.2454C28.6483 42.4394 28.9209 42.4848 29.1181 42.3418C29.3137 42.2001 29.3567 41.9266 29.2145 41.7314C28.5363 40.798 27.7945 39.6721 27.4391 38.3959C27.0832 37.1171 27.1976 35.8441 27.7532 34.9038C28.3687 33.8624 29.5718 33.2713 30.6179 33.5048C30.8561 33.5539 31.0866 33.4079 31.1391 33.1724C31.191 32.9367 31.0422 32.7033 30.8066 32.6512Z" fill="#94A3B8"/>
</svg>
