<svg width="126" height="126" viewBox="0 0 126 126" fill="none" xmlns="http://www.w3.org/2000/svg">
<rect width="126" height="126" rx="10" fill="#F1F5F9"/>
<path d="M57.221 87.918C67.7826 93.0251 80.8503 87.5371 85.0464 76.6771C88.2635 68.3507 85.6526 57.9254 76.8697 52.3747C75.7706 51.6801 71.1095 49.3086 68.7955 49.3413C56.2016 47.0448 44.9475 56.7871 44.9475 69.2143C44.9475 76.6674 48.9593 83.9226 57.221 87.918ZM65.1654 50.9697C75.2249 50.9697 83.4094 59.1542 83.4094 69.2143C83.4094 79.2744 75.2249 87.459 65.1654 87.459C55.1046 87.459 46.9201 79.2744 46.9201 69.2143C46.9201 59.1542 55.1046 50.9697 65.1654 50.9697Z" fill="#94A3B8"/>
<path d="M62.2898 83.3075C65.351 83.9621 68.1575 83.8319 71.0869 82.7309C73.3511 81.8807 75.786 80.1219 77.2899 78.2501C78.5189 76.72 79.4795 74.47 79.8583 72.2309C82.6557 55.6578 63.9656 49.7441 54.6627 59.2728C48.7251 65.3657 50.2148 74.8805 55.17 79.7296C56.8523 81.3754 59.5133 82.7129 62.2898 83.3075ZM52.8686 67.1581C53.3103 63.6676 55.5165 60.3065 59.1858 58.3129C62.9281 56.2799 68.1075 56.1906 71.783 58.0945C74.661 59.5855 76.8853 62.3236 77.7303 65.4186C78.7036 68.9787 78.1096 74.0808 75.7513 77.0147C74.4529 78.6309 72.3506 80.1495 70.3934 80.8841C67.8853 81.8268 65.5133 81.9802 62.7034 81.3786C60.2762 80.8591 57.9761 79.7155 56.5493 78.3195C53.7958 75.6245 52.3511 71.2433 52.8686 67.1581Z" fill="#94A3B8"/>
<path d="M88.3486 56.7287C95.3211 56.7157 95.0446 56.7602 95.2874 56.6921C95.7934 56.6735 96.2095 56.2709 96.2352 55.7559L96.4753 50.9586C96.5046 50.3998 96.056 49.9229 95.4903 49.9229H88.3486C87.8041 49.9229 87.3623 50.3646 87.3623 50.9092V55.7424C87.3623 56.2869 87.8041 56.7287 88.3486 56.7287ZM89.3349 51.8955H94.4539L94.3101 54.7561H89.3349V51.8955Z" fill="#94A3B8"/>
<path d="M26.6996 61.0933L25.7158 61.2397L25.9778 77.7191C25.9868 78.2585 26.426 78.69 26.9641 78.69H26.9795C27.524 78.681 27.9594 78.2328 27.9504 77.6883L27.6884 61.2082L26.6996 61.0933Z" fill="#94A3B8"/>
<path d="M87.844 60.6208H94.0417C94.5863 60.6208 95.028 60.179 95.028 59.6345C95.028 59.09 94.5863 58.6482 94.0417 58.6482H87.844C87.2994 58.6482 86.8577 59.09 86.8577 59.6345C86.8577 60.179 87.2994 60.6208 87.844 60.6208Z" fill="#94A3B8"/>
<path d="M63.32 46.0548H73.2794C73.8162 46.0548 74.2554 45.6253 74.2657 45.0878C74.2581 40.9314 74.5783 40.4932 74.0705 39.9784C73.5542 39.4496 73.8079 39.7882 63.32 39.6824C62.7755 39.6824 62.3337 40.1242 62.3337 40.6687V45.0685C62.3337 45.6131 62.7755 46.0548 63.32 46.0548Z" fill="#94A3B8"/>
<path d="M29.1178 34.8459C28.6516 35.1285 28.5026 35.7353 28.7851 36.2008L31.2547 40.2751C31.441 40.5814 31.7659 40.7502 32.0998 40.7502C32.8566 40.7502 33.3442 39.9152 32.9422 39.2528L30.4726 35.1785C30.1901 34.7124 29.5826 34.5634 29.1178 34.8459Z" fill="#94A3B8"/>
<path d="M35.923 29.8142C35.3811 29.8694 34.9868 30.3536 35.042 30.8949L35.6957 37.2949C35.7471 37.8029 36.176 38.1811 36.6756 38.1811C37.2643 38.1811 37.717 37.6733 37.658 37.0946L37.0044 30.6958C36.9491 30.1532 36.4829 29.7654 35.923 29.8142Z" fill="#94A3B8"/>
<path d="M44.9347 32.7968C43.4437 34.3385 42.1042 36.0363 40.9536 37.8445C40.5325 38.5057 41.0176 39.3605 41.7845 39.3605C42.1107 39.3605 42.4292 39.1994 42.6179 38.904C43.698 37.2075 44.954 35.6144 46.3525 34.1683C46.7314 33.7766 46.7211 33.1519 46.3294 32.7736C45.939 32.3942 45.3149 32.4064 44.9347 32.7968Z" fill="#94A3B8"/>
<path d="M59.7162 73.7946C61.4338 75.2014 63.5082 76.252 65.1126 77.5754C65.477 77.8769 66.0037 77.8763 66.3673 77.5767C71.823 73.0909 72.7744 72.4288 73.6593 71.1567C74.8305 69.4737 75.149 67.2796 74.4928 65.4296C73.43 62.441 69.9612 60.6824 66.9298 62.2935C66.4466 62.5493 66.0798 62.989 65.7265 63.2766C59.6996 58.3977 51.5909 67.1416 59.7162 73.7946ZM60.9131 64.0118C62.0639 63.6503 63.4724 63.9346 64.2727 64.6289C64.4885 64.817 64.7338 65.0296 65.051 65.1798C66.4039 65.8215 67.4261 64.2645 67.8558 64.0349C69.8095 62.9914 71.9763 64.2399 72.6332 66.0904C73.0814 67.3509 72.8541 68.8605 72.0411 70.0304C71.3838 70.9746 70.7968 71.3815 65.7252 75.5501C64.1821 74.3963 62.3874 73.4327 60.9671 72.2689C59.191 70.8151 58.2059 69.073 58.2612 67.4902C58.3177 65.9395 59.4324 64.4761 60.9131 64.0118Z" fill="#94A3B8"/>
<path d="M105.17 93.8991C104.222 93.3891 103.166 93.0615 102.066 92.8377C104.722 90.8915 104.004 86.8981 104.004 83.8073C104.004 76.6608 104.004 57.8629 104.004 51.3908C104.157 49.0297 103.152 46.3181 100.89 45.536C99.5659 44.4216 97.9372 44.8949 96.3716 44.7732C95.3901 40.9083 90.2791 39.5714 87.7091 43.2447C87.4307 43.6437 87.5657 43.9829 87.5305 44.7088C87.5305 44.7199 87.5365 44.7292 87.5369 44.7402L84.8151 44.7301L81.0464 38.2734C80.1307 36.7066 78.4355 35.7306 76.6209 35.7248L57.2018 35.6709C57.1966 35.6709 57.1928 35.6709 57.1876 35.6709C55.4141 35.6709 53.7895 36.5654 52.843 38.0647L48.7179 44.5914L44.3041 44.5763V44.301C44.3041 42.2944 42.6718 40.6621 40.6658 40.6621H35.2681C33.3225 40.6621 31.5665 42.2152 31.6259 44.5331L25.5245 44.5123C22.7857 44.4708 20.4248 46.7295 20.4248 49.5928V88.5395C20.4248 90.798 21.9206 92.702 23.967 93.3645C26.3981 94.5244 33.1905 95.0972 35.4225 95.3221C42.5061 96.0356 51.138 96.0926 58.2425 95.8832C67.5373 95.6091 88.2835 97.0429 104.868 95.3461C105.633 95.2678 105.843 94.261 105.17 93.8991ZM22.7528 89.9531C22.0742 88.634 22.5349 89.9313 22.3974 54.328C26.0264 55.313 28.3006 55.55 32.1384 54.8909C32.7215 64.5754 33.2313 75.9359 32.8396 87.8293C28.9626 89.2131 26.8145 89.9244 22.7528 89.9531ZM89.5031 44.1444C90.9774 42.4036 93.3485 42.8586 94.2565 44.7653L89.4953 44.7476C89.5106 44.3751 89.5001 44.3911 89.5031 44.1444ZM33.6063 44.2041C33.6564 43.3244 34.3871 42.6347 35.2681 42.6347H40.6658C41.5841 42.6347 42.3315 43.3822 42.3315 44.301V44.5696L33.5862 44.5397L33.6063 44.2041ZM25.5143 46.4849C52.2244 46.5759 49.3327 46.7623 50.0935 46.1067L54.51 39.1185C55.0943 38.1944 56.0948 37.6435 57.1876 37.6435H57.1966L76.6157 37.6974C77.733 37.7007 78.7784 38.303 79.3435 39.2681C83.4864 46.329 83.474 46.6979 84.2442 46.7007L98.5763 46.7539C99.1141 46.7539 99.6147 46.8515 99.9425 47.4909L100.068 90.7955C99.8266 91.514 99.507 91.8592 98.5519 91.8625L26.4633 91.6628C29.1926 91.2664 31.4767 90.4038 34.1341 89.4609C34.5156 89.3254 34.7737 88.971 34.7891 88.5677C35.2412 75.8884 34.6632 63.8049 34.0404 53.6574C34.0024 53.0562 33.4417 52.6348 32.864 52.7501C28.4518 53.6265 26.4793 53.4306 22.3974 52.283V49.5928C22.3974 47.8917 23.7713 46.4795 25.5143 46.4849Z" fill="#94A3B8"/>
</svg>
